g house_fairy_ch1x3_1
v -4.09063339 0.20320344 1.88980007
v -4.28803635 0.663957119 1.75396585
v -3.71491051 0.547386169 1.75396585
v -4.60325432 0.307468176 1.75396585
v -4.46636009 -0.140977383 1.75396585
v -4.04243469 -0.326492548 1.75396585
v -3.74403 -0.188603878 1.75396585
v -3.57801628 0.0989406109 1.75396585
v -3.6569519 0.769502401 1.58852971
v -4.35390282 0.826743603 1.5949595
v -4.79866028 0.346059561 1.57732356
v -4.6980629 -0.173913002 1.57883
v -4.51535797 -0.371600151 1.58505225
v -3.92417336 -0.488313913 1.58068597
v -3.47051525 0.576197863 1.57625723
v -3.70179939 -0.287174463 1.66613722
v -3.67813492 -0.583552361 1.58068597
v -3.42819118 -0.446940184 1.58068597
v -3.40631199 -0.146968365 1.58068597
v -4.12029457 -0.591691732 1.34693551
v -3.70645523 -0.751656532 1.33216095
v -3.27290726 -0.536592722 1.33216095
v -3.26638985 -0.0708303452 1.32071328
v -3.92327881 -0.657014608 0.928627372
v -4.08782768 -0.587961674 0.947904289
v -4.4287529 -0.548203468 0.918271959
v -4.52526474 -0.549599409 1.39834797
v -4.29125214 -0.81740427 0.726348996
v -4.66454506 -0.434447765 1.08878124
v -4.8627758 -0.149982452 1.11822474
v -4.86472893 -0.432240486 1.08044147
v -5.01875114 -0.181151152 1.08044147
v -4.89289665 0.0732796192 1.08755302
v -4.87187004 -0.15778923 1.39834797
v -4.92006874 0.371906757 1.39834797
v -4.46211052 -0.62100935 0.780050457
v -4.63676262 -0.677494287 0.884865642
v -4.66237068 -0.584295034 1.00587571
v -4.98606491 -0.615109921 0.884865642
v -4.9401989 -0.538844109 1.0067513
v -5.23527527 -0.208838463 0.884865642
v -5.14966011 -0.192666769 1.00953269
v -5.02335358 0.180802107 0.998032629
v -5.09728241 0.227979422 0.884865642
v -4.86484146 0.355983019 0.901103079
v -4.96908951 0.402627707 1.14190686
v -4.41003609 0.948717833 0.958779871
v -4.41003609 1.02648878 1.17429173
v -5.10121727 0.268960476 0.765416384
v -5.2589283 -0.19831109 0.764297962
v -4.98999977 -0.631219149 0.764679134
v -4.64488602 -0.720606565 0.767585397
v -4.27825928 0.697528601 0.659462094
v -4.69332123 0.330970287 0.625351071
v -3.79432487 0.750744343 0.713050902
v -3.65600204 0.956006527 0.958779871
v -3.51945114 0.662025452 0.766886711
v -3.48252487 0.694352627 0.885209322
v -3.14477158 0.808516741 0.782738686
v -3.14024925 0.839750051 0.907244265
v -2.69200993 0.589111805 0.782738686
v -2.65664577 0.620345354 0.900030136
v -2.58240318 0.225039005 0.782738686
v -2.55156136 0.225039005 0.902295589
v -2.80228901 -0.149160385 0.782738686
v -2.8053484 -0.179491043 0.88367784
v -3.07508755 -0.202688694 0.754543781
v -3.12860489 0.766922474 0.686330557
v -2.71604252 0.567809105 0.686330557
v -3.42354202 0.667580366 0.648306727
v -2.82499123 -0.0677750111 0.686330557
v -3.04447842 -0.125380278 0.642135203
v -2.66003036 0.228213787 0.686330557
v -2.71604252 0.567809105 0.686330557
v -3.11243629 0.618054628 0.589922428
v -2.8488121 0.470829964 0.589922428
v -3.11977863 0.312108517 0.468559176
v -3.327631 0.565861464 0.529726684
v -2.90951538 0.0658707619 0.589922428
v -3.07569027 0.0041885376 0.529726684
v -3.11977863 0.312108517 0.468559176
v -3.09738922 0.299550295 0.324464381
v -3.05909061 -0.221790552 0.324464381
v -3.18337917 0.255718708 0.216346115
v -3.14971924 -0.202465057 0.216346115
v -3.59136677 -0.709182262 0.246444017
v -3.56161594 -0.798355579 0.384660184
v -4.23261261 -0.725923538 0.246444046
v -4.29125214 -0.817403793 0.384660184
v -4.6397953 -0.459793568 0.431159079
v -4.53885841 -0.316366673 0.269693434
v -3.47267246 0.590330362 0.216346115
v -3.42656136 0.680285931 0.324464381
v -4.15619469 0.661236286 0.384660184
v -3.79432487 0.750744343 0.713050902
v -4.1139164 0.573588848 0.246444017
v -4.64917755 0.108787537 0.428207874
v -4.54395294 -0.00753450394 0.268217862
v -4.47138977 -0.609046221 0.684734821
v -4.27825928 0.697528601 0.659462094
v -4.69332123 0.330970287 0.625351071
v -4.67282867 -0.162204742 0.383844733
v -4.55679893 -0.154727697 0.246036306
v -3.327631 0.565861464 0.529726684
v -3.42354202 0.667580366 0.648306727
v -3.59170151 0.394252777 0.108227849
v -4.04264069 0.382479906 0.108227849
v -3.85890579 -0.0685589314 0.00264048576
v -4.34138489 -0.134958982 0.108227849
v -4.12611008 -0.531370401 0.108227849
v -3.6751709 -0.51959753 0.108227849
v -3.3645916 -0.163261414 0.108227849
v -3.38826275 0.158945322 0.108227849
v -2.81216145 0.23138833 0.589922428
v -2.8488121 0.470829964 0.589922428
v -3.65600204 1.03377724 1.19173372
v -4.41003609 0.948717833 1.39834797
v -3.65600204 0.956006527 1.39834797
v -3.31220627 0.567371845 1.21483684
v -3.30940056 0.564199209 1.39834797
v -3.21028423 0.314629316 1.25358689
v -3.11243629 0.618054628 1.213889
v -3.04311562 0.333326817 1.28753829
v -2.8488121 0.470829964 1.213889
v -3.27966213 0.00458598137 1.16999173
v -3.25077915 -0.148049116 0.989693761
v -3.00007153 0.0322580338 1.213889
v -2.81216049 0.23138833 1.213889
v -3.27290726 -0.536592722 1.02496696
v -3.63954163 -0.735263348 1.02496696
v -3.53450775 -0.62061286 0.862754047
v -3.31753063 -0.37966156 0.862647831
v -3.56161594 -0.798355579 0.726348996
v -3.54098225 -0.870305061 0.565306604
v -4.27062035 -0.889354229 0.582719207
v -3.04546833 -0.285368204 0.512965024
v -4.63676262 -0.677494287 0.643120706
v -4.6397953 -0.459793568 0.431159079
v -4.9631424 -0.602695227 0.643120706
v -4.95892525 -0.176430941 0.447544962
v -5.21235275 -0.196423769 0.643120706
v -4.67282867 -0.162204742 0.383844733
v -5.07435989 0.240394115 0.643120706
v -4.95892525 -0.176430941 0.447544962
v -4.64917755 0.108787537 0.428207874
v -4.67282867 -0.162204742 0.383844733
v -2.69200993 0.589111805 1.02107275
v -3.13039589 0.754764795 1.13693428
v -3.14477158 0.808516741 1.02107275
v -2.72225571 0.525581121 1.1430546
v -2.58240318 0.225039005 1.02107275
v -2.66386795 0.228781939 1.15315485
v -2.83856583 -0.179693699 1.02107275
v -2.91834354 -0.0680985451 1.16285908
v -3.44984531 0.722962379 0.989926279
v 4.0560236 -0.199358463 1.88980007
v 4.12744904 -0.69550395 1.75396585
v 3.60402298 -0.434569597 1.75396585
v 4.52419186 -0.432746172 1.75396585
v 4.50802898 0.0358498096 1.75396585
v 4.14656353 0.324763536 1.75396585
v 3.82263947 0.268805981 1.75396585
v 3.58785915 0.0340261459 1.75396585
v 3.34320545 -0.391622782 1.5475595
v 3.44317818 0.162789822 1.55474222
v 3.49992561 -0.641296387 1.57870376
v 3.8073597 0.374947309 1.66613722
v 4.07893085 0.497098446 1.58068597
v 3.86120892 0.667351961 1.58068597
v 3.58442402 0.600084066 1.58068597
v 3.49980927 0.304553986 1.58068597
v 4.29040909 0.560774326 1.34693551
v 4.61827564 0.252381563 1.57004142
v 4.67068481 0.415302753 1.39834797
v 4.90407324 -0.05286479 1.39834797
v 4.73352814 0.00138998032 1.57957101
v 4.69582367 -0.517744064 1.57939076
v 4.81353426 -0.576987028 1.39834797
v 4.17159081 -1.00213718 1.39834809
v 4.15394115 -0.872514725 1.58354807
v 3.44136333 -0.814020157 1.39834809
v 4.57710075 0.438933611 0.918272078
v 4.25808334 0.565574646 0.947904289
v 4.51395941 0.734549522 0.726348996
v 4.89326763 -0.0580518246 1.11822474
v 4.77541685 0.26802659 1.08878124
v 4.96820927 0.214082479 1.08044147
v 5.05199432 -0.0683145523 1.08044147
v 4.86457729 -0.281502247 1.08755302
v 5.24295378 -0.103669882 0.884865701
v 4.9966054 -0.489889383 0.884865642
v 4.76431084 -0.547311783 0.901103139
v 4.85753441 -0.616455078 1.15742338
v 4.17159081 -1.00213718 0.958779931
v 4.17159081 -1.06216764 1.18083835
v 3.44136333 -0.814020157 0.958779871
v 3.44136333 -0.87405014 1.17027295
v 3.62809944 -0.651552439 0.713050902
v 5.10738516 0.353258371 0.884865642
v 4.81148529 0.509982109 0.884865642
v 5.04216433 -0.532417059 0.76391995
v 5.28851271 -0.10367012 0.761823535
v 5.15294504 0.394725084 0.755196214
v 4.81148529 0.55144906 0.750510752
v 4.10931492 -0.725400686 0.659462094
v 4.60510635 -0.478757858 0.625351071
v 3.38555336 -0.494713545 0.766886771
v 3.30254841 -0.535558939 0.989926338
v 4.60935974 0.507447243 0.785947323
v 2.9857254 -0.539239168 0.782738686
v 2.9857254 -0.539239168 1.02107275
v 2.60517788 -0.210127354 1.02107275
v 2.78725052 -0.136459112 1.21388912
v 3.00378704 -0.346898317 1.21388912
v 3.01052189 -0.053930521 1.28753853
v 3.17683411 -0.0791373253 1.25358689
v 3.20986748 -0.349646807 1.21483696
v 3.32409096 0.202386141 1.16999173
v 3.04686737 0.248020411 1.21388912
v 2.81382084 0.104309559 1.21388912
v 2.94572163 0.494550467 1.02107275
v 3.33569717 0.357295752 0.989693761
v 3.33079147 0.27866745 1.32071328
v 3.20797729 -0.345855474 1.39834809
v 3.45763493 0.726872683 1.33216095
v 3.93207264 0.82239747 1.33216095
v 4.11701298 0.674862623 0.928627372
v 3.86319637 0.823882103 1.02496696
v 3.45763493 0.726872683 1.02496696
v 3.73206711 0.740323544 0.862754047
v 3.4601202 0.563739538 0.862647831
v 3.80425453 0.904993534 0.726348996
v 3.80425453 0.904993534 0.384660244
v 4.51395893 0.734548807 0.384660184
v 4.63403368 0.486667395 0.684734821
v 3.16962719 0.478136778 0.384660184
v 3.18013382 0.455546379 0.75454396
v 4.45380402 0.68547225 0.246444046
v 4.75807095 0.298913956 0.431159079
v 4.65195656 0.189735413 0.269693464
v 3.80265903 0.841852665 0.246444046
v 3.22039604 0.450217485 0.246444017
v 3.13053799 -0.0209031105 0.246443987
v 3.07168674 -0.0353524685 0.384660125
v 3.33184719 -0.436485529 0.246444017
v 3.2911005 -0.488310099 0.384660184
v 4.00080299 -0.658752203 0.384660184
v 3.62809944 -0.651552439 0.713050902
v 3.98299026 -0.592864275 0.246444017
v 4.61997461 -0.252722025 0.428207874
v 4.57365084 -0.123063087 0.268217862
v 4.10931492 -0.725400686 0.659462094
v 4.60510635 -0.478757858 0.625351071
v 4.71295643 0.00291633606 0.383844793
v 4.62637472 0.0218937397 0.246036321
v 3.22515869 -0.352180481 0.589922607
v 3.38555336 -0.494713545 0.766886771
v 3.09006214 -0.053276062 0.52875495
v 3.12717342 0.25556159 0.589922607
v 2.95069599 0.238990068 0.589922607
v 2.90277767 0.474446535 0.782738864
v 2.59353447 0.169908047 0.782738864
v 2.59353447 0.169907808 1.02107286
v 2.60517788 -0.210127354 0.782738686
v 3.00378704 -0.346898317 0.589922428
v 2.78725052 -0.136459112 0.589922428
v 3.22515869 -0.352180481 0.589922607
v 2.81382084 0.104309082 0.589922607
v 2.78725052 -0.136459112 0.589922428
v 3.09006214 -0.053276062 0.52875495
v 4.9966054 -0.489889383 0.643120646
v 5.24295378 -0.103669882 0.643120766
v 4.99298716 -0.057390213 0.447544962
v 4.61997461 -0.252722025 0.428207874
v 4.71295643 0.00291633606 0.383844793
v 5.10738516 0.353258371 0.643120706
v 4.99298716 -0.057390213 0.447544962
v 4.75807095 0.298913956 0.431159079
v 4.81148529 0.509982109 0.643120766
v 4.71295643 0.00291633606 0.383844793
v 3.90252972 0.123119593 0.00264048576
v 3.52464581 -0.254764795 0.108227849
v 3.96326637 -0.360104322 0.108227849
v 4.38575363 0.0623829365 0.108227849
v 4.28041363 0.501003742 0.108227909
v 3.84179211 0.606343746 0.108227849
v 3.44957066 0.342532396 0.108227849
v 3.38904095 0.0251779556 0.108227849
v -3.51945114 0.662025452 0.766886711
vt 0.768855751 0.328515768
vt 0.795865178 0.365333468
vt 0.732701898 0.361632854
vt 0.820118845 0.32209596
vt 0.797379911 0.285057187
vt 0.75942415 0.276540756
vt 0.727573216 0.292822152
vt 0.714354932 0.324988425
vt 0.732903481 0.383113354
vt 0.805500865 0.378209531
vt 0.840006649 0.320471406
vt 0.820777655 0.274262965
vt 0.798571169 0.259208381
vt 0.750615895 0.262129307
vt 0.706591845 0.369765103
vt 0.7244398 0.287188739
vt 0.722831488 0.259171754
vt 0.697941124 0.273872882
vt 0.693840325 0.306238294
vt 0.762179673 0.22556062
vt 0.72187233 0.235825628
vt 0.681120336 0.258890986
vt 0.658116698 0.303797603
vt 0.733933508 0.192589164
vt 0.755213022 0.186338589
vt 0.798627555 0.176015422
vt 0.799887896 0.230637059
vt 0.764166176 0.150666863
vt 0.827069581 0.214531273
vt 0.864887655 0.249195457
vt 0.849627018 0.21935381
vt 0.877773225 0.244028494
vt 0.880285084 0.281054884
vt 0.844889641 0.263139188
vt 0.860157192 0.318825394
vt 0.798166394 0.152502283
vt 0.825684905 0.17578648
vt 0.826383233 0.19532761
vt 0.861525118 0.195116714
vt 0.85521841 0.20796372
vt 0.904232204 0.233707666
vt 0.889855027 0.239315748
vt 0.894112289 0.287115633
vt 0.906431913 0.292515606
vt 0.900246561 0.329193443
vt 0.880832195 0.324172437
vt 0.833819747 0.413931578
vt 0.825777054 0.404223621
vt 0.914590955 0.291758806
vt 0.916164279 0.227451295
vt 0.866605043 0.187231392
vt 0.829215527 0.164140373
vt 0.858773053 0.436106533
vt 0.927734733 0.349766374
vt 0.759991348 0.474362165
vt 0.734327674 0.443132699
vt 0.68311137 0.459883451
vt 0.68601203 0.444147587
vt 0.633318722 0.425609827
vt 0.639614344 0.418670356
vt 0.563810706 0.384093523
vt 0.577213645 0.382371843
vt 0.566962242 0.33211717
vt 0.57556653 0.336793602
vt 0.590294123 0.286580682
vt 0.596064091 0.290989161
vt 0.606823564 0.258137375
vt 0.623258829 0.434778959
vt 0.56925118 0.40841949
vt 0.658903956 0.46257326
vt 0.576030135 0.280681491
vt 0.589101493 0.2553491
vt 0.557841778 0.315086335
vt 0.545381427 0.350277364
vt 0.613198936 0.44394809
vt 0.574691653 0.432745486
vt 0.590496659 0.473479152
vt 0.634696603 0.465263069
vt 0.561766148 0.2747823
vt 0.571379423 0.252560824
vt 0.528984845 0.246482849
vt 0.539738655 0.218809679
vt 0.596782982 0.227988496
vt 0.558217287 0.196907446
vt 0.60122335 0.20668152
vt 0.667800426 0.177370384
vt 0.678272307 0.189535826
vt 0.714763522 0.127504036
vt 0.739915311 0.130116254
vt 0.74320358 0.0736103281
vt 0.703730166 0.0789993182
vt 0.541988015 0.153285742
vt 0.519463241 0.159760341
vt 0.554827452 0.0709996149
vt 0.498312742 0.102392793
vt 0.571299553 0.0838087946
vt 0.642286658 0.0284980014
vt 0.653271675 0.0564431548
vt 0.797848403 0.136287943
vt 0.539667308 0.0433237031
vt 0.605157971 0.00779668661
vt 0.691394866 0.0429186709
vt 0.677825809 0.0636534914
vt 0.499607176 0.18192549
vt 0.490960777 0.16206634
vt 0.56451273 0.146811143
vt 0.587771714 0.0966179818
vt 0.625195026 0.129550919
vt 0.664256752 0.0843883082
vt 0.689611733 0.124891825
vt 0.657328546 0.165204942
vt 0.605663657 0.185374543
vt 0.576695979 0.175005212
vt 0.548721254 0.2980555
vt 0.526952088 0.316461176
vt 0.733695745 0.424411416
vt 0.817415476 0.394130826
vt 0.733135164 0.407806873
vt 0.671330869 0.390253156
vt 0.680452228 0.377906591
vt 0.656677246 0.351449072
vt 0.648775399 0.38728857
vt 0.641108692 0.353825778
vt 0.618421197 0.367980003
vt 0.649846613 0.305994153
vt 0.634980142 0.275754273
vt 0.628932059 0.319338262
vt 0.614347935 0.342969775
vt 0.664373696 0.243963704
vt 0.705899715 0.216781929
vt 0.684255481 0.216472924
vt 0.644157827 0.241384804
vt 0.688896716 0.204490945
vt 0.68388927 0.197442397
vt 0.753972292 0.142028362
vt 0.601183712 0.241202533
vt 0.832962513 0.151780844
vt 0.858441591 0.128515318
vt 0.871742964 0.179256052
vt 0.915039778 0.154686883
vt 0.928156734 0.221163288
vt 0.898136199 0.118750691
vt 0.922944427 0.290983975
vt 0.968817592 0.267051429
vt 0.966320872 0.322715074
vt 0.990882814 0.2973167
vt 0.591045141 0.380595148
vt 0.646884084 0.401194274
vt 0.645370066 0.412325978
vt 0.60574913 0.373819411
vt 0.58411473 0.341439515
vt 0.601937056 0.342341602
vt 0.603917897 0.296989799
vt 0.619021773 0.310484082
vt 0.688579202 0.43022117
vt 0.768855751 0.328515768
vt 0.795865178 0.365333468
vt 0.732701898 0.361632854
vt 0.820118845 0.32209596
vt 0.797379911 0.285057187
vt 0.75942415 0.276540756
vt 0.727573216 0.292822152
vt 0.714354932 0.324988425
vt 0.702375293 0.371078372
vt 0.688494742 0.315244198
vt 0.732915401 0.384389192
vt 0.7244398 0.287188739
vt 0.750615895 0.262129307
vt 0.722831488 0.259171754
vt 0.697941124 0.273872882
vt 0.693840325 0.306238294
vt 0.762179673 0.22556062
vt 0.798677027 0.256911248
vt 0.799887896 0.230637059
vt 0.844889641 0.263139188
vt 0.820678651 0.274308622
vt 0.839773893 0.32049042
vt 0.860157192 0.318825394
vt 0.817415476 0.394130826
vt 0.806192458 0.379133642
vt 0.733135164 0.407806873
vt 0.798627555 0.176015422
vt 0.755213022 0.186338589
vt 0.764166176 0.150666863
vt 0.864887655 0.249195457
vt 0.827069581 0.214531273
vt 0.849627018 0.21935381
vt 0.877773225 0.244028494
vt 0.880285084 0.281054884
vt 0.904232204 0.233707666
vt 0.906431913 0.292515606
vt 0.900246561 0.329193443
vt 0.879581273 0.323848903
vt 0.833819747 0.413931578
vt 0.825532734 0.403928757
vt 0.734327674 0.443132699
vt 0.73375392 0.426136106
vt 0.759991348 0.474362165
vt 0.861525118 0.195116714
vt 0.825684905 0.17578648
vt 0.914693236 0.291749358
vt 0.916409254 0.227322906
vt 0.867005825 0.186609223
vt 0.829729557 0.16244483
vt 0.858773053 0.436106533
vt 0.927734733 0.349766374
vt 0.68311137 0.459883451
vt 0.688579202 0.43022117
vt 0.798186064 0.1535054
vt 0.633318722 0.425609827
vt 0.645370066 0.412325978
vt 0.591045141 0.380595148
vt 0.618421197 0.367980003
vt 0.648775399 0.38728857
vt 0.641108692 0.353825778
vt 0.656677246 0.351449072
vt 0.671330869 0.390253156
vt 0.649846613 0.305994153
vt 0.628932059 0.319338262
vt 0.614347935 0.342969775
vt 0.603917897 0.296989799
vt 0.634980142 0.275754273
vt 0.658116698 0.303797603
vt 0.680452228 0.377906591
vt 0.681120336 0.258890986
vt 0.72187233 0.235825628
vt 0.733933508 0.192589164
vt 0.705899715 0.216781929
vt 0.664373696 0.243963704
vt 0.684255481 0.216472924
vt 0.644157827 0.241384804
vt 0.688896716 0.204490945
vt 0.678272307 0.189535826
vt 0.739915311 0.130116254
vt 0.797848403 0.136287943
vt 0.596782982 0.227988496
vt 0.606823564 0.258137375
vt 0.714763522 0.127504036
vt 0.74320358 0.0736103281
vt 0.703730166 0.0789993182
vt 0.667800426 0.177370384
vt 0.60122335 0.20668152
vt 0.558217287 0.196907446
vt 0.539738655 0.218809679
vt 0.541988015 0.153285742
vt 0.519463241 0.159760341
vt 0.554827452 0.0709996149
vt 0.498312742 0.102392793
vt 0.571299553 0.0838087946
vt 0.642286658 0.0284980014
vt 0.653271675 0.0564431548
vt 0.539667308 0.0433237031
vt 0.605157971 0.00779668661
vt 0.691394866 0.0429186709
vt 0.677825809 0.0636534914
vt 0.499607176 0.18192549
vt 0.482314408 0.142207205
vt 0.528984845 0.246482849
vt 0.571379423 0.252560824
vt 0.561766148 0.2747823
vt 0.590294123 0.286580682
vt 0.566962242 0.33211717
vt 0.58411473 0.341439515
vt 0.563810706 0.384093523
vt 0.613198936 0.44394809
vt 0.574691653 0.432745486
vt 0.634696603 0.465263069
vt 0.548721254 0.2980555
vt 0.526952088 0.316461176
vt 0.590496659 0.473479152
vt 0.922944427 0.290983975
vt 0.928156734 0.221163288
vt 0.968817592 0.267051429
vt 0.966320872 0.322715074
vt 0.990882814 0.2973167
vt 0.871742964 0.179256052
vt 0.915039778 0.154686883
vt 0.858441591 0.128515318
vt 0.832962513 0.151780844
vt 0.898136199 0.118750691
vt 0.625195026 0.129550919
vt 0.56451273 0.146811143
vt 0.587771714 0.0966179818
vt 0.664256752 0.0843883082
vt 0.689611733 0.124891825
vt 0.657328546 0.165204942
vt 0.605663657 0.185374543
vt 0.576695979 0.175005212
vt 0.482314408 0.142207205
vn -0.00271405373 0.014635901 0.999889255
vn -0.184934482 0.490516573 0.851582408
vn 0.314194798 0.33752206 0.887333333
vn -0.497343987 0.133237049 0.85726124
vn -0.353366435 -0.309729457 0.882722974
vn -0.00115230691 -0.534476876 0.84518224
vn 0.297758341 -0.358038396 0.884956777
vn 0.507995009 -0.0259197205 0.860969901
vn 0.354105979 0.609391034 0.709402263
vn -0.29689002 0.697550178 0.652134895
vn -0.721185863 0.223073006 0.655842543
vn -0.635193467 -0.347658575 0.68968302
vn -0.37460053 -0.624452353 0.68537128
vn -0.11159692 -0.695470214 0.709836125
vn 0.666839778 0.312700957 0.67641902
vn 0.257841796 -0.40547654 0.8769871
vn 0.0604132973 -0.63753289 0.768050909
vn 0.543394685 -0.336039364 0.769285262
vn 0.721740127 -0.0695440099 0.688661635
vn -0.214544848 -0.934953451 0.282546699
vn 0.0290143695 -0.965031624 0.260522962
vn 0.811576962 -0.509806871 0.285376519
vn 0.962253094 -0.000270290533 0.272155941
vn -0.161658332 -0.936576366 0.310952455
vn -0.237171039 -0.894426107 0.37914598
vn -0.0526431166 -0.909967303 0.411325097
vn -0.384524882 -0.857170403 0.342636019
vn -0.3830145 -0.785379767 0.486290514
vn -0.394821733 -0.706288993 0.587598145
vn -0.707360685 -0.265003383 0.655296981
vn -0.197826177 -0.315713525 0.928003132
vn -0.390930682 -0.0265912767 0.920035958
vn -0.869791269 0.06300807 0.4893803
vn -0.876040399 -0.376716167 0.3010616
vn -0.89869076 0.252825916 0.358376741
vn -0.121477783 -0.961855471 0.24510631
vn 0.135257855 -0.879487872 0.456296474
vn 0.118091606 -0.649475098 0.751156807
vn -0.528596342 -0.772431374 0.352045029
vn -0.390958726 -0.574186027 0.719348073
vn -0.922018051 -0.124103419 0.366716444
vn -0.693094969 -0.0575352199 0.71854651
vn -0.471390635 0.452591658 0.756935656
vn -0.737182319 0.541005254 0.404815316
vn -0.662223697 0.718726575 -0.211876899
vn -0.961343229 0.261210561 -0.0871103331
vn -0.383191764 0.783991158 -0.488387167
vn -0.384170562 0.923249424 -0.00485756947
vn -0.694320738 0.716777027 -0.0644157082
vn -0.991581142 -0.099996537 -0.0822645798
vn -0.577070534 -0.813200474 -0.075462833
vn 0.0960357264 -0.995246947 0.0161427166
vn -0.377176434 0.757147491 -0.533353329
vn -0.430646688 0.661047876 -0.614458382
vn 0.0980223119 0.897835016 -0.429282933
vn 0.394647628 0.806476057 -0.440283537
vn 0.157188594 0.968158364 -0.194836214
vn 0.215006948 0.921185076 -0.32433024
vn 0.0303166527 0.954901695 -0.29537043
vn 0.0487102009 0.99879539 -0.00592635898
vn 0.710107148 0.614966452 -0.342876166
vn 0.760637939 0.64915657 -0.00506460248
vn 0.900480568 -0.130430996 -0.414876401
vn 0.991233528 -0.131623268 0.0114676869
vn 0.549640656 -0.726980925 -0.411575019
vn 0.543950021 -0.838695645 -0.026605323
vn 0.542874277 -0.829384327 0.131943882
vn 0.120111607 0.809980333 -0.574025273
vn 0.627212942 0.502607048 -0.594970703
vn -0.0868249685 0.885590672 -0.456279129
vn 0.482736737 -0.515401065 -0.708044469
vn 0.819534719 -0.418129653 -0.391829729
vn 0.676110566 -0.124421291 -0.72621882
vn 0.627212942 0.502607048 -0.594970703
vn 0.186896861 0.473995984 -0.8604635
vn 0.373257428 0.255541593 -0.891839385
vn 0.763802409 0.359377682 -0.536146998
vn 0.407643437 0.806094348 -0.428997397
vn 0.403844327 -0.297382593 -0.865143538
vn 0.887467742 -0.105794318 -0.448562711
vn 0.763802409 0.359377682 -0.536146998
vn 0.880986571 0.365469843 -0.300490201
vn 0.887273669 -0.250522852 -0.387277395
vn 0.579402566 0.235489532 -0.780280232
vn 0.605269372 -0.224890858 -0.763592243
vn 0.302634954 -0.658802152 -0.688761115
vn 0.373190045 -0.807463765 -0.45687142
vn -0.284345925 -0.62532264 -0.726717949
vn -0.428552955 -0.807108998 -0.406100452
vn -0.462647289 -0.511477649 -0.724118829
vn -0.612835348 -0.255403638 -0.747797906
vn 0.227939904 0.582088053 -0.780523539
vn 0.399866372 0.862650394 -0.309743673
vn -0.368600458 0.82695204 -0.424598634
vn 0.0980223119 0.897835016 -0.429282933
vn -0.331374854 0.635386407 -0.69747752
vn -0.557119966 0.424330205 -0.713835657
vn -0.628589571 0.259976596 -0.732998908
vn -0.291919172 -0.936666787 -0.193490162
vn -0.377176434 0.757147491 -0.533353329
vn -0.430646688 0.661047876 -0.614458382
vn -0.519858658 -0.00363979861 -0.854244471
vn -0.657380402 -0.00814247504 -0.753514886
vn 0.407643437 0.806094348 -0.428997397
vn -0.0868249685 0.885590672 -0.456279129
vn 0.117883675 0.33493039 -0.934839547
vn -0.23053658 0.376396269 -0.897317529
vn -0.0126502477 0.00197927933 -0.999917984
vn -0.405491412 0.0119493036 -0.914020717
vn -0.195584282 -0.362472653 -0.911241114
vn 0.184806913 -0.388411075 -0.902764201
vn 0.339524984 -0.139306992 -0.930223763
vn 0.314255089 0.127763852 -0.940701962
vn 0.458990127 -0.103452072 -0.882397711
vn 0.373257428 0.255541593 -0.891839385
vn 0.413081259 0.910558164 0.0157389678
vn -0.397066981 0.815748036 0.420586377
vn 0.393712074 0.79657191 0.458763629
vn 0.500646651 0.665654004 0.553405702
vn 0.849266589 0.36845389 0.378137559
vn 0.417996287 0.0044451803 0.908437848
vn 0.0588475801 0.38726905 0.920086682
vn 0.0302282665 0.0139961578 0.999445021
vn 0.309082121 0.259114444 0.915056229
vn 0.797499835 -0.348940283 0.492173404
vn 0.685290873 -0.625176847 0.37353766
vn 0.0467295423 -0.336703628 0.94045043
vn 0.328432441 -0.116452493 0.937321126
vn 0.811099529 -0.534006774 -0.238651112
vn 0.1474213 -0.960375488 -0.236528784
vn 0.508981466 -0.843087137 0.173614517
vn 0.854493439 -0.502048552 0.133372694
vn 0.370390773 -0.755492985 0.540408313
vn 0.417345643 -0.908502996 0.0210925359
vn -0.380897969 -0.923732698 0.0404293872
vn 0.924436927 -0.381196558 -0.0102767209
vn 0.130278125 -0.843165398 -0.521631658
vn -0.462647289 -0.511477649 -0.724118829
vn -0.494612932 -0.675351858 -0.547044754
vn -0.433391869 -0.00942878518 -0.901156306
vn -0.818825126 -0.105210558 -0.564319193
vn -0.519858658 -0.00363979861 -0.854244471
vn -0.537989259 0.597654581 -0.594454885
vn -0.433391869 -0.00942878518 -0.901156306
vn -0.557119966 0.424330205 -0.713835657
vn -0.519858658 -0.00363979861 -0.854244471
vn 0.696668506 0.595549464 0.399967283
vn 0.0496073775 0.765357494 0.641690731
vn 0.047122106 0.937959194 0.343528658
vn 0.609455287 0.426991791 0.668013632
vn 0.919942915 -0.137932137 0.366987497
vn 0.672819853 -0.138581067 0.726710916
vn 0.386870205 -0.831721544 0.398209274
vn 0.194126263 -0.583127201 0.788845778
vn 0.311447889 0.950254142 0.00415966427
vn -0.00116682705 -0.0148396874 0.999889255
vn 0.0508576706 -0.533910513 0.844010115
vn -0.409257084 -0.251312137 0.877126396
vn 0.452096224 -0.261061549 0.85291028
vn 0.429926187 0.215502575 0.876767933
vn 0.143026471 0.530824721 0.83532536
vn -0.203674376 0.425173849 0.881897926
vn -0.493023992 0.16264689 0.85467726
vn -0.720237613 -0.156495705 0.675845325
vn -0.787880063 0.191143021 0.585413814
vn -0.493751347 -0.498241574 0.712716579
vn -0.150152728 0.454238325 0.878135324
vn 0.288357168 0.642232299 0.710202694
vn 0.110683933 0.629238069 0.769290984
vn -0.441953659 0.457642376 0.77151829
vn -0.657870352 0.258752406 0.707286179
vn 0.448048145 0.844522834 0.293315738
vn 0.52484709 0.507679582 0.683225334
vn 0.590568006 0.726203024 0.351935476
vn 0.940794051 0.137757599 0.309724629
vn 0.697653234 0.165064588 0.697161198
vn 0.634293735 -0.399929196 0.661610186
vn 0.79788214 -0.471825987 0.375185668
vn 0.154973581 -0.899214089 0.409142166
vn 0.112807751 -0.751365781 0.650172174
vn -0.594785154 -0.687998176 0.415799588
vn 0.2993671 0.855778158 0.421927899
vn 0.460582376 0.802565813 0.379146367
vn 0.571247578 0.751411438 0.330237746
vn 0.751846611 0.0728947148 0.655296206
vn 0.588508546 0.618531585 0.520650089
vn 0.387100339 0.33272472 0.859911323
vn 0.539727211 -0.110840097 0.83451122
vn 0.869700193 -0.299686313 0.392185688
vn 0.840446413 -0.123009801 0.527748466
vn 0.470074773 -0.648877382 0.598320961
vn 0.470693827 -0.861649096 -0.189758033
vn 0.867924631 -0.492479861 -0.0645784363
vn 0.154748306 -0.872224987 -0.463979155
vn 0.15088366 -0.98853904 0.00496908231
vn -0.595154405 -0.693244219 -0.406452388
vn -0.612386286 -0.790488362 -0.010547745
vn -0.335171252 -0.835173905 -0.436055809
vn 0.645715952 0.524027407 0.555379391
vn 0.11658822 0.842851222 0.525365591
vn 0.545491278 -0.837343931 -0.0359780006
vn 0.992448211 -0.122430831 -0.00755774137
vn 0.763761044 0.644763112 -0.0308158249
vn 0.1169331 0.991928339 -0.049038928
vn 0.16835916 -0.828969061 -0.53335315
vn 0.242564321 -0.749715924 -0.615701735
vn -0.419934839 -0.81318599 -0.402967989
vn -0.572200239 -0.820102453 0.00435268553
vn 0.448457927 0.846257746 0.287633866
vn -0.296993256 -0.888553858 -0.349667102
vn -0.305704862 -0.883189797 0.355697066
vn -0.845413446 -0.389834166 0.365110129
vn -0.528796554 -0.19811517 0.82530272
vn -0.221313834 -0.493169397 0.841311038
vn -0.0328207202 -0.00569503708 0.999445021
vn -0.404909015 0.103893086 0.908435404
vn -0.671839416 -0.533786535 0.513520837
vn -0.686603546 0.546414852 0.47958985
vn -0.0219186991 0.469626337 0.882593215
vn -0.446374685 0.302672982 0.84210372
vn -0.203931332 0.885707676 0.417053759
vn -0.506807268 0.774521172 0.378501594
vn -0.925770164 0.261846155 0.272738367
vn -0.91535449 -0.158695742 0.37005651
vn -0.651974916 0.702487528 0.285377085
vn 0.221742779 0.939658523 0.260522574
vn 0.398553133 0.862823009 0.31095311
vn 0.106166489 0.965807259 -0.236527026
vn -0.645250201 0.725740016 -0.238649845
vn -0.273431391 0.94609338 0.173616067
vn -0.695436835 0.706100941 0.133375689
vn -0.162606969 0.925170541 0.342955709
vn -0.165544137 0.965851545 -0.199313939
vn 0.609113932 0.757419288 -0.23515135
vn 0.485021502 0.849531591 -0.207485288
vn -0.82213366 0.543589115 -0.169136539
vn -0.356967896 0.934025884 -0.0130208889
vn 0.459929794 0.570705235 -0.680264771
vn 0.610310614 0.381221086 -0.694400012
vn 0.6923576 0.080775626 -0.717019022
vn -0.150772914 0.760684073 -0.631369412
vn -0.648042381 0.427652627 -0.630201757
vn -0.754970849 -0.0956378654 -0.648746848
vn -0.978227258 -0.129796728 -0.161938772
vn -0.479669482 -0.586549938 -0.652592063
vn -0.637443066 -0.751619339 -0.169512704
vn 0.140878126 -0.920433581 -0.36463064
vn -0.335171252 -0.835173905 -0.436055809
vn 0.143508643 -0.746219456 -0.650047481
vn 0.449362785 -0.572460175 -0.685829759
vn 0.571538568 -0.421488494 -0.704053342
vn 0.16835916 -0.828969061 -0.53335315
vn 0.242564321 -0.749715924 -0.615701735
vn 0.558095098 -0.14602679 -0.81682682
vn 0.6634112 -0.167779416 -0.729202032
vn -0.519857168 -0.740801454 -0.425396174
vn -0.419934839 -0.81318599 -0.402967989
vn -0.758591175 -0.140858188 -0.636159122
vn -0.73607558 0.428271651 -0.524190843
vn -0.213649645 0.420861721 -0.881605983
vn -0.359574527 0.850926757 -0.382922649
vn -0.857735515 0.355025947 -0.371815026
vn -0.84521085 0.360220551 0.394790828
vn -0.848593295 -0.395821303 -0.351019681
vn -0.217405379 -0.482563555 -0.848450005
vn -0.474691808 -0.191691533 -0.859023869
vn -0.519857168 -0.740801454 -0.425396174
vn -0.422442436 0.221183628 -0.878988206
vn -0.474691808 -0.191691533 -0.859023869
vn -0.758591175 -0.140858188 -0.636159122
vn 0.333209217 -0.686407208 -0.646387458
vn 0.813386261 -0.131985337 -0.566553295
vn 0.421064973 -0.103062615 -0.901156127
vn 0.449362785 -0.572460175 -0.685829759
vn 0.558095098 -0.14602679 -0.81682682
vn 0.604782104 0.496693492 -0.622522473
vn 0.421064973 -0.103062615 -0.901156127
vn 0.610310614 0.381221086 -0.694400012
vn 0.105077356 0.836226285 -0.538223505
vn 0.558095098 -0.14602679 -0.81682682
vn 0.0117070088 -0.00518602738 -0.999917984
vn -0.221370175 -0.297079057 -0.928837597
vn 0.118862294 -0.390677333 -0.912821412
vn 0.362897068 -0.109660611 -0.925354123
vn 0.262031764 0.274051577 -0.925329745
vn -0.0706558973 0.388880372 -0.918574929
vn -0.312017858 0.220166847 -0.924213886
vn -0.358039051 -0.0449508429 -0.932624042
vn 0.157188594 0.968158364 -0.194836214
g house_fairy_ch1x3_1_0
f 3/3/3 2/2/2 1/1/1
f 2/2/2 4/4/4 1/1/1
f 4/4/4 5/5/5 1/1/1
f 5/5/5 6/6/6 1/1/1
f 6/6/6 7/7/7 1/1/1
f 7/7/7 8/8/8 1/1/1
f 8/8/8 3/3/3 1/1/1
f 3/3/3 9/9/9 2/2/2
f 10/10/10 2/2/2 9/9/9
f 2/2/2 10/10/10 4/4/4
f 11/11/11 4/4/4 10/10/10
f 11/11/11 12/12/12 4/4/4
f 5/5/5 4/4/4 12/12/12
f 12/12/12 13/13/13 5/5/5
f 5/5/5 13/13/13 6/6/6
f 14/14/14 6/6/6 13/13/13
f 15/15/15 9/9/9 3/3/3
f 3/3/3 8/8/8 15/15/15
f 16/16/16 6/6/6 14/14/14
f 7/7/7 6/6/6 16/16/16
f 14/14/14 17/17/17 16/16/16
f 17/17/17 18/18/18 16/16/16
f 18/18/18 19/19/19 16/16/16
f 8/8/8 7/7/7 19/19/19
f 16/16/16 19/19/19 7/7/7
f 19/19/19 15/15/15 8/8/8
f 14/14/14 20/20/20 17/17/17
f 14/14/14 13/13/13 20/20/20
f 21/21/21 17/17/17 20/20/20
f 18/18/18 17/17/17 22/22/22
f 21/21/21 22/22/22 17/17/17
f 19/19/19 18/18/18 23/23/23
f 22/22/22 23/23/23 18/18/18
f 19/19/19 23/23/23 15/15/15
f 21/21/21 20/20/20 24/24/24
f 25/25/25 24/24/24 20/20/20
f 25/25/25 20/20/20 26/26/26
f 27/27/27 26/26/26 20/20/20
f 13/13/13 12/12/12 27/27/27
f 27/27/27 20/20/20 13/13/13
f 28/28/28 25/25/25 26/26/26
f 28/28/28 24/24/24 25/25/25
f 26/26/26 27/27/27 29/29/29
f 29/29/29 27/27/27 30/30/30
f 29/29/29 30/30/30 31/31/31
f 32/32/32 31/31/31 30/30/30
f 32/32/32 30/30/30 33/33/33
f 34/34/34 30/30/30 27/27/27
f 30/30/30 34/34/34 33/33/33
f 34/34/34 35/35/35 33/33/33
f 36/36/36 28/28/28 26/26/26
f 26/26/26 37/37/37 36/36/36
f 38/38/38 37/37/37 26/26/26
f 29/29/29 38/38/38 26/26/26
f 29/29/29 31/31/31 38/38/38
f 37/37/37 38/38/38 39/39/39
f 40/40/40 39/39/39 38/38/38
f 40/40/40 38/38/38 31/31/31
f 39/39/39 40/40/40 41/41/41
f 42/42/42 41/41/41 40/40/40
f 32/32/32 42/42/42 31/31/31
f 40/40/40 31/31/31 42/42/42
f 32/32/32 33/33/33 42/42/42
f 42/42/42 43/43/43 41/41/41
f 43/43/43 42/42/42 33/33/33
f 44/44/44 41/41/41 43/43/43
f 43/43/43 45/45/45 44/44/44
f 33/33/33 45/45/45 43/43/43
f 46/46/46 45/45/45 33/33/33
f 35/35/35 46/46/46 33/33/33
f 45/45/45 46/46/46 47/47/47
f 48/48/48 47/47/47 46/46/46
f 46/46/46 35/35/35 48/48/48
f 44/44/44 49/49/49 41/41/41
f 44/44/44 45/45/45 49/49/49
f 50/50/50 41/41/41 49/49/49
f 41/41/41 50/50/50 39/39/39
f 51/51/51 39/39/39 50/50/50
f 39/39/39 51/51/51 37/37/37
f 52/52/52 37/37/37 51/51/51
f 47/47/47 53/53/53 45/45/45
f 54/54/54 45/45/45 53/53/53
f 54/54/54 49/49/49 45/45/45
f 53/53/53 47/47/47 55/55/55
f 55/55/55 47/47/47 56/56/56
f 47/47/47 48/48/48 56/56/56
f 55/55/55 56/56/56 57/57/57
f 58/58/58 57/57/57 56/56/56
f 57/57/57 58/58/58 59/59/59
f 60/60/60 59/59/59 58/58/58
f 59/59/59 60/60/60 61/61/61
f 62/62/62 61/61/61 60/60/60
f 61/61/61 62/62/62 63/63/63
f 64/64/64 63/63/63 62/62/62
f 63/63/63 64/64/64 65/65/65
f 66/66/66 65/65/65 64/64/64
f 65/65/65 66/66/66 67/67/67
f 59/59/59 61/61/61 68/68/68
f 69/69/69 68/68/68 61/61/61
f 68/68/68 70/70/70 59/59/59
f 57/57/57 59/59/59 70/70/70
f 65/65/65 67/67/67 71/71/71
f 65/65/65 71/71/71 63/63/63
f 72/72/72 71/71/71 67/67/67
f 73/73/73 63/63/63 71/71/71
f 73/73/73 74/74/74 63/63/63
f 61/61/61 63/63/63 74/74/74
f 68/68/68 69/69/69 75/75/75
f 76/76/76 75/75/75 69/69/69
f 75/75/75 76/76/76 77/77/77
f 75/75/75 77/77/77 78/78/78
f 75/75/75 78/78/78 68/68/68
f 70/70/70 68/68/68 78/78/78
f 71/71/71 72/72/72 79/79/79
f 71/71/71 79/79/79 73/73/73
f 80/80/80 79/79/79 72/72/72
f 79/79/79 80/80/80 81/81/81
f 81/81/81 80/80/80 82/82/82
f 83/83/83 82/82/82 80/80/80
f 82/82/82 83/83/83 84/84/84
f 85/85/85 84/84/84 83/83/83
f 85/85/85 83/83/83 86/86/86
f 87/87/87 86/86/86 83/83/83
f 86/86/86 87/87/87 88/88/88
f 89/89/89 88/88/88 87/87/87
f 89/89/89 90/90/90 88/88/88
f 91/91/91 88/88/88 90/90/90
f 84/84/84 92/92/92 82/82/82
f 93/93/93 82/82/82 92/92/92
f 93/93/93 92/92/92 94/94/94
f 93/93/93 94/94/94 95/95/95
f 96/96/96 94/94/94 92/92/92
f 94/94/94 96/96/96 97/97/97
f 98/98/98 97/97/97 96/96/96
f 90/90/90 89/89/89 99/99/99
f 95/95/95 94/94/94 100/100/100
f 94/94/94 97/97/97 100/100/100
f 101/101/101 100/100/100 97/97/97
f 90/90/90 102/102/102 91/91/91
f 97/97/97 98/98/98 102/102/102
f 103/103/103 91/91/91 102/102/102
f 103/103/103 102/102/102 98/98/98
f 93/93/93 95/95/95 104/104/104
f 105/105/105 104/104/104 95/95/95
f 93/93/93 104/104/104 82/82/82
f 81/81/81 82/82/82 104/104/104
f 92/92/92 106/106/106 96/96/96
f 107/107/107 96/96/96 106/106/106
f 96/96/96 107/107/107 98/98/98
f 107/107/107 106/106/106 108/108/108
f 109/109/109 107/107/107 108/108/108
f 109/109/109 98/98/98 107/107/107
f 109/109/109 103/103/103 98/98/98
f 110/110/110 109/109/109 108/108/108
f 111/111/111 110/110/110 108/108/108
f 112/112/112 111/111/111 108/108/108
f 113/113/113 112/112/112 108/108/108
f 106/106/106 113/113/113 108/108/108
f 109/109/109 110/110/110 91/91/91
f 109/109/109 91/91/91 103/103/103
f 88/88/88 91/91/91 110/110/110
f 111/111/111 86/86/86 110/110/110
f 88/88/88 110/110/110 86/86/86
f 111/111/111 112/112/112 86/86/86
f 85/85/85 86/86/86 112/112/112
f 112/112/112 113/113/113 85/85/85
f 84/84/84 85/85/85 113/113/113
f 113/113/113 106/106/106 84/84/84
f 92/92/92 84/84/84 106/106/106
f 79/79/79 81/81/81 114/114/114
f 114/114/114 73/73/73 79/79/79
f 114/114/114 115/115/115 73/73/73
f 115/115/115 114/114/114 81/81/81
f 74/74/74 73/73/73 115/115/115
f 48/48/48 117/117/117 116/116/116
f 118/118/118 116/116/116 117/117/117
f 116/116/116 118/118/118 119/119/119
f 119/119/119 118/118/118 120/120/120
f 119/119/119 120/120/120 121/121/121
f 121/121/121 120/120/120 23/23/23
f 119/119/119 121/121/121 122/122/122
f 123/123/123 122/122/122 121/121/121
f 124/124/124 122/122/122 123/123/123
f 121/121/121 125/125/125 123/123/123
f 125/125/125 121/121/121 23/23/23
f 125/125/125 23/23/23 126/126/126
f 22/22/22 126/126/126 23/23/23
f 127/127/127 123/123/123 125/125/125
f 127/127/127 128/128/128 123/123/123
f 128/128/128 124/124/124 123/123/123
f 129/129/129 126/126/126 22/22/22
f 22/22/22 21/21/21 129/129/129
f 130/130/130 129/129/129 21/21/21
f 24/24/24 130/130/130 21/21/21
f 131/131/131 129/129/129 130/130/130
f 131/131/131 130/130/130 24/24/24
f 131/131/131 132/132/132 129/129/129
f 129/129/129 132/132/132 126/126/126
f 131/131/131 133/133/133 132/132/132
f 24/24/24 133/133/133 131/131/131
f 67/67/67 132/132/132 133/133/133
f 126/126/126 132/132/132 67/67/67
f 133/133/133 134/134/134 67/67/67
f 134/134/134 133/133/133 135/135/135
f 28/28/28 135/135/135 133/133/133
f 133/133/133 24/24/24 28/28/28
f 135/135/135 28/28/28 99/99/99
f 136/136/136 67/67/67 134/134/134
f 89/89/89 135/135/135 99/99/99
f 135/135/135 89/89/89 134/134/134
f 87/87/87 134/134/134 89/89/89
f 134/134/134 87/87/87 136/136/136
f 83/83/83 136/136/136 87/87/87
f 136/136/136 83/83/83 80/80/80
f 72/72/72 136/136/136 80/80/80
f 67/67/67 136/136/136 72/72/72
f 99/99/99 28/28/28 36/36/36
f 36/36/36 52/52/52 99/99/99
f 52/52/52 36/36/36 37/37/37
f 137/137/137 99/99/99 52/52/52
f 138/138/138 99/99/99 137/137/137
f 137/137/137 139/139/139 138/138/138
f 137/137/137 52/52/52 139/139/139
f 140/140/140 138/138/138 139/139/139
f 140/140/140 139/139/139 141/141/141
f 138/138/138 140/140/140 142/142/142
f 139/139/139 51/51/51 141/141/141
f 51/51/51 139/139/139 52/52/52
f 50/50/50 141/141/141 51/51/51
f 141/141/141 50/50/50 143/143/143
f 144/144/144 141/141/141 143/143/143
f 143/143/143 54/54/54 144/144/144
f 145/145/145 144/144/144 54/54/54
f 144/144/144 145/145/145 146/146/146
f 143/143/143 49/49/49 54/54/54
f 49/49/49 143/143/143 50/50/50
f 149/149/149 148/148/148 147/147/147
f 150/150/150 147/147/147 148/148/148
f 147/147/147 150/150/150 151/151/151
f 152/152/152 151/151/151 150/150/150
f 151/151/151 152/152/152 153/153/153
f 154/154/154 153/153/153 152/152/152
f 154/154/154 126/126/126 153/153/153
f 149/149/149 155/155/155 148/148/148
f 153/153/153 126/126/126 67/67/67
f 155/155/155 119/119/119 148/148/148
f 155/155/155 56/56/56 119/119/119
f 116/116/116 119/119/119 56/56/56
f 116/116/116 56/56/56 48/48/48
f 122/122/122 148/148/148 119/119/119
f 148/148/148 122/122/122 150/150/150
f 124/124/124 150/150/150 122/122/122
f 150/150/150 124/124/124 152/152/152
f 128/128/128 152/152/152 124/124/124
f 152/152/152 128/128/128 154/154/154
f 127/127/127 154/154/154 128/128/128
f 127/127/127 125/125/125 154/154/154
f 126/126/126 154/154/154 125/125/125
f 155/155/155 58/58/58 56/56/56
f 58/58/58 155/155/155 60/60/60
f 149/149/149 60/60/60 155/155/155
f 60/60/60 149/149/149 62/62/62
f 147/147/147 62/62/62 149/149/149
f 62/62/62 147/147/147 64/64/64
f 151/151/151 64/64/64 147/147/147
f 64/64/64 151/151/151 66/66/66
f 153/153/153 66/66/66 151/151/151
f 153/153/153 67/67/67 66/66/66
f 117/117/117 48/48/48 35/35/35
f 35/35/35 11/11/11 117/117/117
f 10/10/10 117/117/117 11/11/11
f 117/117/117 10/10/10 118/118/118
f 9/9/9 118/118/118 10/10/10
f 9/9/9 15/15/15 118/118/118
f 120/120/120 118/118/118 15/15/15
f 120/120/120 15/15/15 23/23/23
f 35/35/35 34/34/34 11/11/11
f 12/12/12 11/11/11 34/34/34
f 34/34/34 27/27/27 12/12/12
f 158/158/158 157/157/157 156/156/156
f 157/157/157 159/159/159 156/156/156
f 159/159/159 160/160/160 156/156/156
f 160/160/160 161/161/161 156/156/156
f 161/161/161 162/162/162 156/156/156
f 162/162/162 163/163/163 156/156/156
f 163/163/163 158/158/158 156/156/156
f 158/158/158 163/163/163 164/164/164
f 165/165/165 164/164/164 163/163/163
f 164/164/164 166/166/166 158/158/158
f 158/158/158 166/166/166 157/157/157
f 162/162/162 161/161/161 167/167/167
f 167/167/167 161/161/161 168/168/168
f 168/168/168 169/169/169 167/167/167
f 169/169/169 170/170/170 167/167/167
f 170/170/170 171/171/171 167/167/167
f 163/163/163 162/162/162 171/171/171
f 167/167/167 171/171/171 162/162/162
f 165/165/165 163/163/163 171/171/171
f 168/168/168 172/172/172 169/169/169
f 168/168/168 173/173/173 172/172/172
f 160/160/160 173/173/173 161/161/161
f 168/168/168 161/161/161 173/173/173
f 174/174/174 172/172/172 173/173/173
f 174/174/174 173/173/173 175/175/175
f 176/176/176 175/175/175 173/173/173
f 176/176/176 177/177/177 175/175/175
f 178/178/178 175/175/175 177/177/177
f 178/178/178 177/177/177 179/179/179
f 180/180/180 179/179/179 177/177/177
f 179/179/179 180/180/180 181/181/181
f 166/166/166 181/181/181 180/180/180
f 174/174/174 182/182/182 172/172/172
f 183/183/183 172/172/172 182/182/182
f 184/184/184 183/183/183 182/182/182
f 175/175/175 185/185/185 174/174/174
f 186/186/186 174/174/174 185/185/185
f 182/182/182 174/174/174 186/186/186
f 186/186/186 185/185/185 187/187/187
f 188/188/188 187/187/187 185/185/185
f 188/188/188 185/185/185 189/189/189
f 175/175/175 178/178/178 189/189/189
f 185/185/185 175/175/175 189/189/189
f 188/188/188 189/189/189 190/190/190
f 191/191/191 190/190/190 189/189/189
f 189/189/189 192/192/192 191/191/191
f 193/193/193 192/192/192 189/189/189
f 178/178/178 193/193/193 189/189/189
f 178/178/178 179/179/179 193/193/193
f 192/192/192 193/193/193 194/194/194
f 195/195/195 194/194/194 193/193/193
f 194/194/194 195/195/195 196/196/196
f 197/197/197 196/196/196 195/195/195
f 198/198/198 194/194/194 196/196/196
f 187/187/187 188/188/188 199/199/199
f 190/190/190 199/199/199 188/188/188
f 186/186/186 187/187/187 200/200/200
f 199/199/199 200/200/200 187/187/187
f 191/191/191 201/201/201 190/190/190
f 191/191/191 192/192/192 201/201/201
f 202/202/202 190/190/190 201/201/201
f 190/190/190 202/202/202 199/199/199
f 203/203/203 199/199/199 202/202/202
f 199/199/199 203/203/203 200/200/200
f 204/204/204 200/200/200 203/203/203
f 194/194/194 205/205/205 192/192/192
f 205/205/205 194/194/194 198/198/198
f 206/206/206 192/192/192 205/205/205
f 206/206/206 201/201/201 192/192/192
f 198/198/198 196/196/196 207/207/207
f 208/208/208 207/207/207 196/196/196
f 204/204/204 209/209/209 200/200/200
f 182/182/182 200/200/200 209/209/209
f 186/186/186 200/200/200 182/182/182
f 209/209/209 184/184/184 182/182/182
f 207/207/207 208/208/208 210/210/210
f 211/211/211 210/210/210 208/208/208
f 211/211/211 212/212/212 210/210/210
f 212/212/212 211/211/211 213/213/213
f 214/214/214 213/213/213 211/211/211
f 213/213/213 214/214/214 215/215/215
f 215/215/215 214/214/214 216/216/216
f 217/217/217 216/216/216 214/214/214
f 208/208/208 217/217/217 211/211/211
f 214/214/214 211/211/211 217/217/217
f 216/216/216 218/218/218 215/215/215
f 219/219/219 215/215/215 218/218/218
f 219/219/219 220/220/220 215/215/215
f 220/220/220 213/213/213 215/215/215
f 213/213/213 220/220/220 212/212/212
f 219/219/219 218/218/218 221/221/221
f 222/222/222 221/221/221 218/218/218
f 218/218/218 223/223/223 222/222/222
f 218/218/218 216/216/216 223/223/223
f 216/216/216 224/224/224 223/223/223
f 217/217/217 224/224/224 216/216/216
f 217/217/217 181/181/181 224/224/224
f 225/225/225 222/222/222 223/223/223
f 225/225/225 223/223/223 170/170/170
f 170/170/170 169/169/169 225/225/225
f 226/226/226 225/225/225 169/169/169
f 226/226/226 169/169/169 172/172/172
f 171/171/171 170/170/170 223/223/223
f 226/226/226 172/172/172 227/227/227
f 183/183/183 227/227/227 172/172/172
f 184/184/184 227/227/227 183/183/183
f 227/227/227 228/228/228 226/226/226
f 225/225/225 226/226/226 229/229/229
f 228/228/228 229/229/229 226/226/226
f 229/229/229 222/222/222 225/225/225
f 230/230/230 229/229/229 228/228/228
f 230/230/230 228/228/228 227/227/227
f 230/230/230 231/231/231 229/229/229
f 229/229/229 231/231/231 222/222/222
f 230/230/230 232/232/232 231/231/231
f 227/227/227 232/232/232 230/230/230
f 232/232/232 227/227/227 184/184/184
f 232/232/232 184/184/184 233/233/233
f 234/234/234 233/233/233 184/184/184
f 234/234/234 184/184/184 235/235/235
f 233/233/233 236/236/236 232/232/232
f 237/237/237 232/232/232 236/236/236
f 237/237/237 231/231/231 232/232/232
f 222/222/222 231/231/231 237/237/237
f 234/234/234 238/238/238 233/233/233
f 234/234/234 239/239/239 238/238/238
f 239/239/239 234/234/234 235/235/235
f 240/240/240 238/238/238 239/239/239
f 241/241/241 233/233/233 238/238/238
f 241/241/241 242/242/242 233/233/233
f 236/236/236 233/233/233 242/242/242
f 242/242/242 243/243/243 236/236/236
f 244/244/244 236/236/236 243/243/243
f 243/243/243 245/245/245 244/244/244
f 246/246/246 244/244/244 245/245/245
f 246/246/246 245/245/245 247/247/247
f 246/246/246 247/247/247 248/248/248
f 249/249/249 247/247/247 245/245/245
f 247/247/247 249/249/249 250/250/250
f 251/251/251 250/250/250 249/249/249
f 248/248/248 247/247/247 252/252/252
f 247/247/247 250/250/250 252/252/252
f 253/253/253 252/252/252 250/250/250
f 239/239/239 254/254/254 240/240/240
f 250/250/250 251/251/251 254/254/254
f 255/255/255 240/240/240 254/254/254
f 255/255/255 254/254/254 251/251/251
f 246/246/246 248/248/248 256/256/256
f 246/246/246 256/256/256 244/244/244
f 257/257/257 256/256/256 248/248/248
f 258/258/258 244/244/244 256/256/256
f 258/258/258 259/259/259 244/244/244
f 236/236/236 244/244/244 259/259/259
f 260/260/260 259/259/259 258/258/258
f 259/259/259 260/260/260 237/237/237
f 237/237/237 236/236/236 259/259/259
f 261/261/261 237/237/237 260/260/260
f 237/237/237 261/261/261 221/221/221
f 261/261/261 262/262/262 221/221/221
f 263/263/263 221/221/221 262/262/262
f 221/221/221 263/263/263 219/219/219
f 220/220/220 219/219/219 263/263/263
f 263/263/263 212/212/212 220/220/220
f 212/212/212 263/263/263 264/264/264
f 262/262/262 264/264/264 263/263/263
f 264/264/264 210/210/210 212/212/212
f 210/210/210 264/264/264 265/265/265
f 266/266/266 265/265/265 264/264/264
f 265/265/265 267/267/267 210/210/210
f 207/207/207 210/210/210 267/267/267
f 262/262/262 261/261/261 268/268/268
f 260/260/260 268/268/268 261/261/261
f 264/264/264 262/262/262 269/269/269
f 268/268/268 269/269/269 262/262/262
f 265/265/265 266/266/266 270/270/270
f 265/265/265 270/270/270 267/267/267
f 269/269/269 268/268/268 258/258/258
f 260/260/260 258/258/258 268/268/268
f 273/273/273 272/272/272 271/271/271
f 271/271/271 206/206/206 273/273/273
f 274/274/274 273/273/273 206/206/206
f 273/273/273 274/274/274 275/275/275
f 271/271/271 201/201/201 206/206/206
f 272/272/272 202/202/202 271/271/271
f 201/201/201 271/271/271 202/202/202
f 202/202/202 272/272/272 203/203/203
f 276/276/276 203/203/203 272/272/272
f 277/277/277 276/276/276 272/272/272
f 277/277/277 278/278/278 276/276/276
f 279/279/279 276/276/276 278/278/278
f 278/278/278 235/235/235 279/279/279
f 278/278/278 277/277/277 280/280/280
f 279/279/279 204/204/204 276/276/276
f 203/203/203 276/276/276 204/204/204
f 279/279/279 235/235/235 204/204/204
f 209/209/209 204/204/204 235/235/235
f 235/235/235 184/184/184 209/209/209
f 283/283/283 282/282/282 281/281/281
f 284/284/284 283/283/283 281/281/281
f 285/285/285 284/284/284 281/281/281
f 286/286/286 285/285/285 281/281/281
f 287/287/287 286/286/286 281/281/281
f 288/288/288 287/287/287 281/281/281
f 282/282/282 288/288/288 281/281/281
f 283/283/283 249/249/249 282/282/282
f 245/245/245 282/282/282 249/249/249
f 284/284/284 251/251/251 283/283/283
f 249/249/249 283/283/283 251/251/251
f 284/284/284 285/285/285 240/240/240
f 238/238/238 240/240/240 285/285/285
f 286/286/286 241/241/241 285/285/285
f 238/238/238 285/285/285 241/241/241
f 286/286/286 287/287/287 241/241/241
f 242/242/242 241/241/241 287/287/287
f 287/287/287 288/288/288 242/242/242
f 243/243/243 242/242/242 288/288/288
f 288/288/288 282/282/282 243/243/243
f 245/245/245 243/243/243 282/282/282
f 284/284/284 240/240/240 255/255/255
f 284/284/284 255/255/255 251/251/251
f 221/221/221 222/222/222 237/237/237
f 208/208/208 196/196/196 217/217/217
f 197/197/197 217/217/217 196/196/196
f 181/181/181 217/217/217 197/197/197
f 181/181/181 197/197/197 179/179/179
f 195/195/195 179/179/179 197/197/197
f 195/195/195 193/193/193 179/179/179
f 181/181/181 166/166/166 224/224/224
f 164/164/164 224/224/224 166/166/166
f 164/164/164 165/165/165 224/224/224
f 223/223/223 224/224/224 165/165/165
f 223/223/223 165/165/165 171/171/171
f 180/180/180 157/157/157 166/166/166
f 157/157/157 180/180/180 159/159/159
f 177/177/177 159/159/159 180/180/180
f 177/177/177 176/176/176 159/159/159
f 160/160/160 159/159/159 176/176/176
f 160/160/160 176/176/176 173/173/173
f 289/289/289 105/105/105 95/95/95
