g Object025
v 4.62143278 -0.09928298 1.24368298
v 3.29916096 -0.09928298 3.4790616
v 3.98562622 -0.09928298 3.89216924
v 1.85224247 -0.09928298 4.98722744
v 2.30407429 -0.09928298 5.80294991
v -0.124286652 -0.0992834568 6.4468317
v -0.124286652 -0.0992834568 5.50491714
v -0.124286652 -0.0992834568 4.56300163
v 1.4004097 -0.09928298 4.17150497
v 3.29916096 -0.09928298 3.4790616
v 2.61269569 -0.09928298 3.06595421
v 4.62143278 -0.09928298 1.24368298
v 3.82876968 -0.09928298 1.24368298
v 3.03610706 -0.09928298 1.24368298
v 3.82876968 -0.09928298 1.24368298
v 2.61269569 -0.09928298 3.06595421
v -2.55264759 -0.09928298 5.80294991
v -0.124286652 -0.0992834568 5.50491714
v -2.10081482 -0.09928298 4.98722744
v -0.124286652 -0.0992834568 6.4468317
v -1.64898205 -0.09928298 4.17150497
v -0.124286652 -0.0992834568 4.56300163
v -3.5477314 -0.09928298 3.47906208
v -2.10081482 -0.09928298 4.98722744
v -4.23419762 -0.09928298 3.89216948
v -3.5477314 -0.09928298 3.47906208
v -4.87000465 -0.0992827415 1.41887128
v -4.07734108 -0.0992827415 1.41887128
v -2.86126614 -0.09928298 3.06595469
v -3.28467846 -0.0992827415 1.41887128
vt 0.0181214232 0.0251870491
vt 0.294026136 0.421517938
vt 0.147054508 0.506372094
vt 0.584160566 0.711652398
vt 0.49930644 0.858624101
vt 0.9804914 0.987557173
vt 0.9804914 0.817848921
vt 0.9804914 0.648140728
vt 0.669014692 0.564680755
vt 0.294026136 0.421517938
vt 0.440997809 0.336663812
vt 0.0181214232 0.0251870491
vt 0.187829643 0.0251870491
vt 0.357537866 0.0251870491
vt 0.187829643 0.0251870491
vt 0.440997809 0.336663812
vt 0.499306381 0.858624101
vt 0.9804914 0.817848921
vt 0.584160507 0.711652398
vt 0.9804914 0.987557173
vt 0.669014633 0.564680755
vt 0.9804914 0.648140728
vt 0.294026226 0.421517938
vt 0.584160507 0.711652398
vt 0.147054583 0.506372094
vt 0.294026226 0.421517938
vt 0.0181214232 0.0251870491
vt 0.187829643 0.0251870491
vt 0.440997869 0.336663812
vt 0.357537866 0.0251870491
vn -0 -1 0
vn -0 -1 0
vn -0 -1 0
vn -0 -1 0
vn -0 -1 0
vn -0 -1 0
vn -0 -1 0
vn -0 -1 0
vn -0 -1 0
vn -0 -1 0
vn -0 -1 0
vn -0 -1 0
vn -0 -1 0
vn -0 -1 0
vn -0 -1 0
vn -0 -1 0
vn -0 -1 0
vn -0 -1 0
vn -0 -1 0
vn -0 -1 0
vn -0 -1 0
vn -0 -1 0
vn -0 -1 0
vn -0 -1 0
vn -0 -1 0
vn -0 -1 0
vn -0 -1 0
vn -0 -1 0
vn -0 -1 0
vn -0 -1 0
g Object025_0
f 3/3/3 2/2/2 1/1/1
f 2/2/2 3/3/3 4/4/4
f 5/5/5 4/4/4 3/3/3
f 5/5/5 6/6/6 4/4/4
f 7/7/7 4/4/4 6/6/6
f 7/7/7 8/8/8 4/4/4
f 9/9/9 4/4/4 8/8/8
f 4/4/4 9/9/9 10/10/10
f 11/11/11 10/10/10 9/9/9
f 13/13/13 12/12/12 2/2/2
f 14/14/14 13/13/13 11/11/11
f 2/2/2 16/16/16 15/15/15
f 19/19/19 18/18/18 17/17/17
f 20/20/20 17/17/17 18/18/18
f 19/19/19 21/21/21 18/18/18
f 22/22/22 18/18/18 21/21/21
f 19/19/19 23/23/23 21/21/21
f 17/17/17 25/25/25 24/24/24
f 26/26/26 24/24/24 25/25/25
f 25/25/25 27/27/27 26/26/26
f 28/28/28 26/26/26 27/27/27
f 29/29/29 21/21/21 26/26/26
f 26/26/26 28/28/28 29/29/29
f 30/30/30 29/29/29 28/28/28
