g WIRE_r_0045_fl
v 0.0930140689 0.102985926 -0.0748236626
v 0.0930140689 0.121067204 -0.03933708
v -0.113408506 0.102985926 -0.0748236626
v -0.113408506 0.121067204 -0.03933708
v -0.113408506 0.0748236701 -0.102985799
v 0.0930140689 0.0748236552 -0.102985799
v -0.113408506 0.0393371284 -0.121067293
v 0.0930140689 0.0393371098 -0.121067293
v -0.113408469 9.53674295E-09 -0.127297506
v 0.0930140689 9.53674295E-09 -0.127297506
v 0.0930140689 -0.0393370949 -0.121067181
v -0.113408506 -0.0393370949 -0.121067181
v -0.113408506 -0.0748236254 -0.102985799
v 0.0930140689 -0.0748236254 -0.102985799
v -0.113408506 -0.102985874 -0.0748236626
v 0.0930140689 -0.102985874 -0.0748236626
v -0.113408506 -0.121067137 -0.03933708
v 0.0930140689 -0.121067137 -0.03933708
v -0.113408506 -0.127297506 -3.81469718E-08
v 0.0930140689 -0.127297506 -3.81469718E-08
v 0.11089813 0.0693145245 -0.0954032466
v 0.110898055 0.0954032764 -0.0693144947
v 0.11089813 0.0364408009 -0.112153225
v 0.11089813 9.53674295E-09 -0.117924899
v 0.11089813 -0.0364407822 -0.112153225
v 0.11089813 -0.0693145096 -0.0954032466
v 0.11089813 -0.0954032093 -0.0693144947
v 0.11089813 -0.112153195 -0.0364407338
v 0.110898055 -0.117924847 -3.81469718E-08
v 0.123331144 0.0676238164 -0.0491315648
v 0.123331144 0.0794965476 -0.0258299634
v 0.11089813 0.112153292 -0.0364407338
v 0.0930140689 0.127297506 -3.81469718E-08
v 0.110898055 0.117924832 -3.81469718E-08
v 0.123331219 0.0258299913 -0.079496555
v 0.123331219 0.0491315648 -0.0676238239
v 0.123331219 -0.0676237643 -0.0491315648
v 0.123331144 -0.0794964805 -0.0258299634
v 0.123331144 0.0835875794 -3.81469718E-08
v 0.123331219 9.53674295E-09 -0.083587572
v 0.123331144 -0.0491315387 -0.0676237494
v 0.123331219 -0.0258299913 -0.0794964805
v 0.123331144 -0.0835875571 -3.81469718E-08
v -0.113408506 -0.121067137 0.039337121
v 0.0930140689 -0.121067137 0.039337121
v 0.0930140689 -0.127297506 -3.81469718E-08
v -0.113408506 -0.127297506 -3.81469718E-08
v -0.113408506 -0.102985859 0.074823603
v 0.0930140689 -0.102985844 0.074823603
v -0.113408506 -0.0748235956 0.102985874
v 0.0930140689 -0.0748235956 0.102985874
v -0.113408469 -0.03933708 0.121067122
v 0.0930140689 -0.03933708 0.121067122
v -0.113408469 9.53674295E-09 0.12729755
v 0.0930140689 9.53674295E-09 0.12729755
v 0.0930140689 0.0393371098 0.121067122
v -0.113408506 0.0393371098 0.121067122
v -0.113408469 0.0748235956 0.102985874
v 0.0930140689 0.0748235956 0.102985874
v 0.0930140689 0.102985866 0.074823603
v -0.113408506 0.102985866 0.074823603
v -0.113408506 0.121067151 0.039337121
v 0.0930140689 0.121067151 0.039337121
v -0.113408506 0.127297506 -3.81469718E-08
v 0.0930140689 0.127297506 -3.81469718E-08
v 0.11089813 -0.0693144873 0.0954032466
v 0.110898055 -0.0954032093 0.069314532
v 0.11089813 -0.112153195 0.0364407711
v 0.110898055 -0.117924847 -3.81469718E-08
v 0.11089813 0.0693145245 0.0954032466
v 0.11089813 0.0364407897 0.112153202
v 0.11089813 9.53674295E-09 0.117924839
v 0.11089813 -0.0364407785 0.112153202
v 0.123331144 -0.0835875571 -3.81469718E-08
v 0.123331144 -0.0794964805 0.0258299634
v 0.123331144 -0.0676237494 0.0491315052
v 0.123331144 -0.0491315387 0.0676237866
v 0.123331219 9.53674295E-09 0.0835875273
v 0.123331219 0.025829982 0.0794964582
v 0.123331144 0.049131535 0.0676237866
v 0.11089813 0.0954032242 0.069314532
v 0.123331219 0.0676237792 0.0491315052
v 0.123331144 0.0835875794 -3.81469718E-08
v 0.123331144 0.0794964656 0.0258299634
v 0.11089813 0.112153232 0.0364407711
v 0.110898055 0.117924832 -3.81469718E-08
v 0.123331144 0.0676238164 -0.0491315648
v 0.132325053 9.53674295E-09 -3.81469718E-08
v 0.123331144 0.0794965476 -0.0258299634
v 0.123331219 0.0491315648 -0.0676238239
v 0.123331219 0.0258299913 -0.079496555
v 0.123331219 9.53674295E-09 -0.083587572
v 0.123331144 0.0835875794 -3.81469718E-08
v 0.123331219 -0.0258299913 -0.0794964805
v 0.132325053 9.53674295E-09 -3.81469718E-08
v 0.123331219 9.53674295E-09 -0.083587572
v 0.123331144 -0.0491315387 -0.0676237494
v 0.123331219 -0.0676237643 -0.0491315648
v 0.123331144 -0.0794964805 -0.0258299634
v 0.123331144 -0.0835875571 -3.81469718E-08
v 0.123331144 -0.0794964805 0.0258299634
v 0.132325053 9.53674295E-09 -3.81469718E-08
v 0.123331144 -0.0835875571 -3.81469718E-08
v 0.123331144 -0.0676237494 0.0491315052
v 0.123331144 -0.0491315387 0.0676237866
v 0.123331144 -0.0258299634 0.0794964582
v 0.123331219 9.53674295E-09 0.0835875273
v 0.123331219 0.025829982 0.0794964582
v 0.132325053 9.53674295E-09 -3.81469718E-08
v 0.123331219 9.53674295E-09 0.0835875273
v 0.123331144 0.049131535 0.0676237866
v 0.123331219 0.0676237792 0.0491315052
v 0.123331144 0.0794964656 0.0258299634
v 0.123331144 0.0835875794 -3.81469718E-08
v -0.132325098 9.53674295E-09 -3.81469718E-08
v -0.113408506 0.102985926 -0.0748236626
v -0.113408506 0.121067204 -0.03933708
v -0.113408506 0.0748236701 -0.102985799
v -0.113408506 0.0393371284 -0.121067293
v -0.113408469 9.53674295E-09 -0.127297506
v -0.113408506 -0.0393370949 -0.121067181
v -0.113408506 -0.0748236254 -0.102985799
v -0.113408506 -0.102985874 -0.0748236626
v -0.113408506 -0.121067137 -0.03933708
v -0.113408506 -0.127297506 -3.81469718E-08
v -0.113408506 -0.121067137 0.039337121
v -0.113408506 -0.102985859 0.074823603
v -0.113408506 -0.0748235956 0.102985874
v -0.113408469 -0.03933708 0.121067122
v -0.113408469 9.53674295E-09 0.12729755
v -0.113408506 0.0393371098 0.121067122
v -0.113408469 0.0748235956 0.102985874
v -0.113408506 0.102985866 0.074823603
v -0.113408506 0.121067151 0.039337121
v -0.113408506 0.127297506 -3.81469718E-08
v 0.11089813 -0.0693145096 -0.0954032466
v 0.11089813 -0.0364407822 -0.112153225
v 0.0930140689 -0.0393370949 -0.121067181
v 0.11089813 -0.0954032093 -0.0693144947
v 0.0930140689 -0.102985874 -0.0748236626
v 0.0930140689 -0.121067137 -0.03933708
v 0.11089813 -0.112153195 -0.0364407338
v 0.11089813 0.112153292 -0.0364407338
v 0.0930140689 0.121067204 -0.03933708
v 0.110898055 0.0954032764 -0.0693144947
v 0.0930140689 0.102985926 -0.0748236626
v 0.0930140689 0.127297506 -3.81469718E-08
v -0.113408506 0.121067204 -0.03933708
v -0.113408506 0.127297506 -3.81469718E-08
v 0.123331219 9.53674295E-09 -0.083587572
v 0.11089813 9.53674295E-09 -0.117924899
v 0.123331219 -0.0258299913 -0.0794964805
v 0.123331219 -0.0676237643 -0.0491315648
v 0.123331144 -0.0491315387 -0.0676237494
v 0.11089813 -0.0693144873 0.0954032466
v 0.0930140689 -0.102985844 0.074823603
v 0.0930140689 -0.0748235956 0.102985874
v 0.110898055 -0.0954032093 0.069314532
v 0.0930140689 0.0393371098 0.121067122
v 0.11089813 0.0364407897 0.112153202
v 0.0930140689 9.53674295E-09 0.12729755
v 0.11089813 9.53674295E-09 0.117924839
v 0.0930140689 -0.03933708 0.121067122
v 0.11089813 -0.0364407785 0.112153202
v 0.11089813 -0.112153195 0.0364407711
v 0.123331144 -0.0676237494 0.0491315052
v 0.123331144 -0.0491315387 0.0676237866
v 0.123331144 -0.0258299634 0.0794964582
v 0.123331219 9.53674295E-09 0.0835875273
v 0.11089813 0.0954032242 0.069314532
v 0.0930140689 0.102985866 0.074823603
v 0.0930140689 0.121067151 0.039337121
v 0.11089813 0.112153232 0.0364407711
v 0.0930140689 0.127297506 -3.81469718E-08
v 0.110898055 0.117924832 -3.81469718E-08
v 0.123331219 0.0676237792 0.0491315052
v 0.123331144 0.0794964656 0.0258299634
v 0.123331219 -0.0258299913 -0.0794964805
v 0.11089813 -0.0364407822 -0.112153225
v 0.11089813 -0.0693145096 -0.0954032466
v 0.11089813 -0.0364407785 0.112153202
v 0.0930140689 -0.03933708 0.121067122
v 0.0930140689 9.53674295E-09 0.12729755
v 0.123331144 -0.0491315387 0.0676237866
v 0.11089813 -0.0693144873 0.0954032466
vt 0.828357458 0.536812603
vt 0.828357458 0.522345424
vt 0.899930716 0.536651194
vt 0.899930596 0.521923602
vt 0.899930537 0.55050987
vt 0.828357458 0.550311208
vt 0.899930596 0.565209448
vt 0.828357458 0.565002382
vt 0.899930656 0.581146836
vt 0.828357458 0.580935836
vt 0.828357458 0.598135412
vt 0.899930537 0.597880781
vt 0.899930537 0.613399863
vt 0.828357458 0.613807321
vt 0.899930716 0.627358377
vt 0.828357458 0.627034605
vt 0.899930537 0.64247191
vt 0.828357458 0.642204762
vt 0.899930596 0.657958388
vt 0.828357458 0.657958388
vt 0.822144747 0.550311208
vt 0.822144747 0.536812544
vt 0.822144806 0.565023124
vt 0.822144747 0.580935836
vt 0.822144687 0.598135412
vt 0.822144806 0.613807321
vt 0.822144687 0.627034605
vt 0.822144806 0.642204762
vt 0.822144687 0.657958388
vt 0.798146069 0.536812603
vt 0.798146069 0.521973491
vt 0.822144628 0.522097588
vt 0.828357458 0.506359816
vt 0.822144687 0.506359816
vt 0.798146069 0.565033376
vt 0.798146069 0.550311208
vt 0.798146069 0.627034605
vt 0.798146069 0.642204762
vt 0.798146069 0.506359816
vt 0.798146069 0.580935836
vt 0.798146069 0.613807321
vt 0.798146069 0.598135412
vt 0.798146069 0.657958388
vt 0.899930537 0.521909595
vt 0.828357458 0.522176743
vt 0.828357458 0.506359816
vt 0.899930656 0.506359816
vt 0.899930537 0.537023127
vt 0.828357458 0.5373469
vt 0.899930537 0.550981641
vt 0.828357458 0.550574183
vt 0.899930596 0.566500783
vt 0.828357458 0.566246092
vt 0.899930656 0.583234668
vt 0.828357458 0.583445668
vt 0.828357458 0.599378943
vt 0.899930596 0.599171937
vt 0.899930656 0.613871515
vt 0.828357458 0.614070296
vt 0.828357458 0.627568901
vt 0.899930537 0.62773025
vt 0.899930537 0.642457843
vt 0.828357458 0.64203608
vt 0.899930716 0.657958388
vt 0.828357458 0.657958388
vt 0.822144687 0.550574183
vt 0.822144747 0.53734684
vt 0.822144806 0.522176683
vt 0.822144687 0.506359816
vt 0.822144568 0.614070356
vt 0.822144747 0.599358439
vt 0.822144687 0.583445668
vt 0.822144687 0.566246092
vt 0.798146069 0.506359816
vt 0.798146069 0.522176743
vt 0.798146069 0.5373469
vt 0.798146069 0.550574183
vt 0.798146069 0.583445668
vt 0.798146069 0.599348128
vt 0.798146069 0.614070296
vt 0.822144806 0.627568901
vt 0.798146069 0.627568901
vt 0.798146069 0.657958388
vt 0.798146069 0.642407835
vt 0.822144806 0.642283797
vt 0.822144687 0.657958388
vt 0.535336375 0.712362051
vt 0.511597097 0.679687858
vt 0.524077594 0.7180987
vt 0.544271588 0.703427017
vt 0.550008059 0.692168176
vt 0.551984727 0.679687858
vt 0.511597097 0.720075309
vt 0.549499452 0.664835453
vt 0.51108861 0.67731595
vt 0.551476359 0.67731595
vt 0.543763041 0.653576732
vt 0.534827828 0.644641757
vt 0.523569047 0.638905168
vt 0.51108861 0.636928439
vt 0.471753359 0.692483127
vt 0.510164142 0.680002749
vt 0.46977675 0.680002749
vt 0.477490067 0.703741968
vt 0.486424983 0.712677002
vt 0.497683883 0.718413591
vt 0.510164261 0.720390201
vt 0.497669727 0.638837457
vt 0.510150313 0.67724824
vt 0.510150313 0.636860728
vt 0.486410946 0.644573927
vt 0.477476001 0.65350914
vt 0.471739292 0.664767921
vt 0.469762713 0.677248299
vt 0.905629396 0.539239407
vt 0.909465075 0.542026281
vt 0.910138547 0.540704548
vt 0.908416271 0.543075144
vt 0.907094479 0.543748617
vt 0.905629396 0.543980658
vt 0.904164314 0.543748617
vt 0.902842641 0.543075144
vt 0.901793659 0.542026281
vt 0.901120245 0.540704548
vt 0.900888145 0.539239407
vt 0.901120245 0.537774324
vt 0.901793659 0.536452651
vt 0.902842641 0.535403669
vt 0.904164314 0.534730256
vt 0.905629396 0.534498215
vt 0.907094479 0.534730256
vt 0.908416271 0.535403669
vt 0.909465194 0.536452651
vt 0.910138547 0.537774324
vt 0.910370588 0.539239407
vt 0.822144806 0.613807321
vt 0.822144687 0.598135412
vt 0.828357458 0.598135412
vt 0.822144687 0.627034605
vt 0.828357458 0.627034605
vt 0.828357458 0.642204762
vt 0.822144806 0.642204762
vt 0.822144628 0.522097588
vt 0.828357458 0.522345424
vt 0.822144747 0.536812544
vt 0.828357458 0.536812603
vt 0.828357458 0.506359816
vt 0.899930596 0.521923602
vt 0.899930537 0.506359816
vt 0.798146069 0.580935836
vt 0.822144747 0.580935836
vt 0.798146069 0.598135412
vt 0.798146069 0.627034605
vt 0.798146069 0.613807321
vt 0.822144687 0.550574183
vt 0.828357458 0.5373469
vt 0.828357458 0.550574183
vt 0.822144747 0.53734684
vt 0.828357458 0.599378943
vt 0.822144747 0.599358439
vt 0.828357458 0.583445668
vt 0.822144687 0.583445668
vt 0.828357458 0.566246092
vt 0.822144687 0.566246092
vt 0.822144806 0.522176683
vt 0.798146069 0.5373469
vt 0.798146069 0.550574183
vt 0.798146069 0.566246092
vt 0.798146069 0.583445668
vt 0.822144806 0.627568901
vt 0.828357458 0.627568901
vt 0.828357458 0.64203608
vt 0.822144806 0.642283797
vt 0.828357458 0.657958388
vt 0.822144687 0.657958388
vt 0.798146069 0.627568901
vt 0.798146069 0.642407835
vt 0.798146069 0.598135412
vt 0.822144687 0.598135412
vt 0.822144806 0.613807321
vt 0.822144687 0.566246092
vt 0.828357458 0.566246092
vt 0.828357458 0.583445668
vt 0.798146069 0.550574183
vt 0.822144687 0.550574183
vn 0.0386065058 0.808413684 -0.587347388
vn 0.0386064798 0.950347841 -0.308785647
vn -0.257808626 0.781668842 -0.567915976
vn -0.257808685 0.918907285 -0.298569977
vn -0.257809222 0.567916155 -0.781668544
vn 0.0386066064 0.587347686 -0.808413446
vn -0.257808387 0.298571169 -0.918907046
vn 0.0386065915 0.308786988 -0.950347364
vn -0.257808983 -1.33984031E-06 -0.966195941
vn 0.0386065803 -1.37934637E-06 -0.999254405
vn 0.0386064164 -0.308787107 -0.950347245
vn -0.257808656 -0.298571169 -0.918906987
vn -0.257808894 -0.56791544 -0.78166914
vn 0.0386064127 -0.587346852 -0.808414042
vn -0.257808536 -0.781669021 -0.567915738
vn 0.038606517 -0.808413804 -0.58734715
vn -0.257808864 -0.918907046 -0.298570633
vn 0.0386065282 -0.950347602 -0.308786333
vn -0.257808626 -0.96619606 0
vn 0.0386064611 -0.999254405 0
vn 0.78441304 0.364567608 -0.50178355
vn 0.78441292 0.501784027 -0.36456722
vn 0.784412801 0.191664308 -0.589882493
vn 0.784412742 -2.33200936E-07 -0.620239258
vn 0.784412801 -0.191664845 -0.589882255
vn 0.784412682 -0.36456728 -0.501784205
vn 0.78441304 -0.501783848 -0.364566982
vn 0.784413338 -0.589882016 -0.191663459
vn 0.78441292 -0.6202389 0
vn 0.970921338 0.193677858 -0.140714422
vn 0.970921576 0.227681071 -0.073977977
vn 0.784413695 0.58988148 -0.191663653
vn 0.0386064388 0.999254405 7.60825117E-07
vn 0.784413338 0.620238423 6.24090831E-07
vn 0.970921338 0.0739777833 -0.227681935
vn 0.970921457 0.140715331 -0.193676904
vn 0.970921457 -0.193677366 -0.140714556
vn 0.970921457 -0.227681711 -0.0739769638
vn 0.970921457 0.239398405 3.40591413E-07
vn 0.970921338 0 -0.239398763
vn 0.970921338 -0.140715271 -0.193677634
vn 0.970921457 -0.0739787519 -0.2276811
vn 0.970921338 -0.239398748 0
vn -0.257808596 -0.918907046 0.298570871
vn 0.03860645 -0.950347483 0.308786482
vn 0.0386064611 -0.999254405 0
vn -0.257808626 -0.96619606 0
vn -0.257808924 -0.781668901 0.567915738
vn 0.0386063717 -0.808413804 0.58734715
vn -0.257808954 -0.56791538 0.78166914
vn 0.0386063457 -0.587346911 0.808413982
vn -0.257808864 -0.298570991 0.918906987
vn 0.03860645 -0.30878672 0.950347483
vn -0.257808626 -1.15772728E-07 0.96619606
vn 0.0386064909 0 0.999254405
vn 0.0386063643 0.308786809 0.950347483
vn -0.257808983 0.298571229 0.918906868
vn -0.257808685 0.567915678 0.781669021
vn 0.0386062972 0.587346911 0.808413982
vn 0.0386063792 0.808413804 0.58734715
vn -0.257809013 0.781668782 0.567915916
vn -0.257808536 0.918907166 0.298570663
vn 0.0386064202 0.950347602 0.308786213
vn -0.257808805 0.966195941 7.17834098E-07
vn 0.0386064388 0.999254405 7.60825117E-07
vn 0.78441292 -0.364568144 0.501783252
vn 0.78441292 -0.501783967 0.364567131
vn 0.784413695 -0.589881301 0.191664055
vn 0.78441292 -0.6202389 0
vn 0.784412384 0.364567518 0.501784444
vn 0.784412742 0.191663831 0.589882731
vn 0.78441292 -4.08657058E-07 0.620239079
vn 0.78441292 -0.191664264 0.589882374
vn 0.970921338 -0.239398748 0
vn 0.970921338 -0.227681547 0.0739782155
vn 0.970921338 -0.193677872 0.140714854
vn 0.970921457 -0.140714929 0.193677038
vn 0.970921457 -9.9425165E-07 0.239398301
vn 0.970921576 0.0739779845 0.227681085
vn 0.970921457 0.140714541 0.193677634
vn 0.784412742 0.501784027 0.36456731
vn 0.970921576 0.193677098 0.140714362
vn 0.970921457 0.239398405 3.40591413E-07
vn 0.970921576 0.227681458 0.0739768967
vn 0.784413099 0.589882493 0.191663131
vn 0.784413338 0.620238423 6.24090831E-07
vn 0.970921338 0.193677858 -0.140714422
vn 1 -1.08273163E-07 1.46334486E-07
vn 0.970921576 0.227681071 -0.073977977
vn 0.970921457 0.140715331 -0.193676904
vn 0.970921338 0.0739777833 -0.227681935
vn 0.970921338 0 -0.239398763
vn 0.970921457 0.239398405 3.40591413E-07
vn 0.970921457 -0.0739787519 -0.2276811
vn 1 -1.08273163E-07 1.46334486E-07
vn 0.970921338 0 -0.239398763
vn 0.970921338 -0.140715271 -0.193677634
vn 0.970921457 -0.193677366 -0.140714556
vn 0.970921457 -0.227681711 -0.0739769638
vn 0.970921338 -0.239398748 0
vn 0.970921338 -0.227681547 0.0739782155
vn 1 -1.08273163E-07 1.46334486E-07
vn 0.970921338 -0.239398748 0
vn 0.970921338 -0.193677872 0.140714854
vn 0.970921457 -0.140714929 0.193677038
vn 0.970921576 -0.0739783421 0.227680981
vn 0.970921457 -9.9425165E-07 0.239398301
vn 0.970921576 0.0739779845 0.227681085
vn 1 -1.08273163E-07 1.46334486E-07
vn 0.970921457 -9.9425165E-07 0.239398301
vn 0.970921457 0.140714541 0.193677634
vn 0.970921576 0.193677098 0.140714362
vn 0.970921576 0.227681458 0.0739768967
vn 0.970921457 0.239398405 3.40591413E-07
vn -1 0 0
vn -0.257808626 0.781668842 -0.567915976
vn -0.257808685 0.918907285 -0.298569977
vn -0.257809222 0.567916155 -0.781668544
vn -0.257808387 0.298571169 -0.918907046
vn -0.257808983 -1.33984031E-06 -0.966195941
vn -0.257808656 -0.298571169 -0.918906987
vn -0.257808894 -0.56791544 -0.78166914
vn -0.257808536 -0.781669021 -0.567915738
vn -0.257808864 -0.918907046 -0.298570633
vn -0.257808626 -0.96619606 0
vn -0.257808596 -0.918907046 0.298570871
vn -0.257808924 -0.781668901 0.567915738
vn -0.257808954 -0.56791538 0.78166914
vn -0.257808864 -0.298570991 0.918906987
vn -0.257808626 -1.15772728E-07 0.96619606
vn -0.257808983 0.298571229 0.918906868
vn -0.257808685 0.567915678 0.781669021
vn -0.257809013 0.781668782 0.567915916
vn -0.257808536 0.918907166 0.298570663
vn -0.257808805 0.966195941 7.17834098E-07
vn 0.784412682 -0.36456728 -0.501784205
vn 0.784412801 -0.191664845 -0.589882255
vn 0.0386064164 -0.308787107 -0.950347245
vn 0.78441304 -0.501783848 -0.364566982
vn 0.038606517 -0.808413804 -0.58734715
vn 0.0386065282 -0.950347602 -0.308786333
vn 0.784413338 -0.589882016 -0.191663459
vn 0.784413695 0.58988148 -0.191663653
vn 0.0386064798 0.950347841 -0.308785647
vn 0.78441292 0.501784027 -0.36456722
vn 0.0386065058 0.808413684 -0.587347388
vn 0.0386064388 0.999254405 7.60825117E-07
vn -0.257808685 0.918907285 -0.298569977
vn -0.257808805 0.966195941 7.17834098E-07
vn 0.970921338 0 -0.239398763
vn 0.784412742 -2.33200936E-07 -0.620239258
vn 0.970921457 -0.0739787519 -0.2276811
vn 0.970921457 -0.193677366 -0.140714556
vn 0.970921338 -0.140715271 -0.193677634
vn 0.78441292 -0.364568144 0.501783252
vn 0.0386063717 -0.808413804 0.58734715
vn 0.0386063457 -0.587346911 0.808413982
vn 0.78441292 -0.501783967 0.364567131
vn 0.0386063643 0.308786809 0.950347483
vn 0.784412742 0.191663831 0.589882731
vn 0.0386064909 0 0.999254405
vn 0.78441292 -4.08657058E-07 0.620239079
vn 0.03860645 -0.30878672 0.950347483
vn 0.78441292 -0.191664264 0.589882374
vn 0.784413695 -0.589881301 0.191664055
vn 0.970921338 -0.193677872 0.140714854
vn 0.970921457 -0.140714929 0.193677038
vn 0.970921576 -0.0739783421 0.227680981
vn 0.970921457 -9.9425165E-07 0.239398301
vn 0.784412742 0.501784027 0.36456731
vn 0.0386063792 0.808413804 0.58734715
vn 0.0386064202 0.950347602 0.308786213
vn 0.784413099 0.589882493 0.191663131
vn 0.0386064388 0.999254405 7.60825117E-07
vn 0.784413338 0.620238423 6.24090831E-07
vn 0.970921576 0.193677098 0.140714362
vn 0.970921576 0.227681458 0.0739768967
vn 0.970921457 -0.0739787519 -0.2276811
vn 0.784412801 -0.191664845 -0.589882255
vn 0.784412682 -0.36456728 -0.501784205
vn 0.78441292 -0.191664264 0.589882374
vn 0.03860645 -0.30878672 0.950347483
vn 0.0386064909 0 0.999254405
vn 0.970921457 -0.140714929 0.193677038
vn 0.78441292 -0.364568144 0.501783252
g WIRE_r_0045_fl_0
f 3/3/3 2/2/2 1/1/1
f 2/2/2 3/3/3 4/4/4
f 5/5/5 3/3/3 1/1/1
f 1/1/1 6/6/6 5/5/5
f 7/7/7 5/5/5 6/6/6
f 6/6/6 8/8/8 7/7/7
f 9/9/9 7/7/7 8/8/8
f 8/8/8 10/10/10 9/9/9
f 9/9/9 10/10/10 11/11/11
f 11/11/11 12/12/12 9/9/9
f 13/13/13 12/12/12 11/11/11
f 11/11/11 14/14/14 13/13/13
f 15/15/15 13/13/13 14/14/14
f 14/14/14 16/16/16 15/15/15
f 17/17/17 15/15/15 16/16/16
f 16/16/16 18/18/18 17/17/17
f 19/19/19 17/17/17 18/18/18
f 18/18/18 20/20/20 19/19/19
f 8/8/8 6/6/6 21/21/21
f 22/22/22 21/21/21 6/6/6
f 21/21/21 23/23/23 8/8/8
f 10/10/10 8/8/8 23/23/23
f 23/23/23 24/24/24 10/10/10
f 10/10/10 25/25/25 11/11/11
f 10/10/10 24/24/24 25/25/25
f 14/14/14 11/11/11 26/26/26
f 16/16/16 14/14/14 27/27/27
f 14/14/14 26/26/26 27/27/27
f 20/20/20 18/18/18 28/28/28
f 28/28/28 29/29/29 20/20/20
f 30/30/30 21/21/21 22/22/22
f 31/31/31 30/30/30 22/22/22
f 22/22/22 32/32/32 31/31/31
f 32/32/32 2/2/2 33/33/33
f 32/32/32 33/33/33 34/34/34
f 31/31/31 32/32/32 34/34/34
f 23/23/23 35/35/35 24/24/24
f 23/23/23 36/36/36 35/35/35
f 30/30/30 36/36/36 21/21/21
f 21/21/21 36/36/36 23/23/23
f 37/37/37 28/28/28 27/27/27
f 37/37/37 38/38/38 28/28/28
f 34/34/34 39/39/39 31/31/31
f 6/6/6 1/1/1 22/22/22
f 40/40/40 24/24/24 35/35/35
f 42/42/42 41/41/41 26/26/26
f 37/37/37 27/27/27 26/26/26
f 28/28/28 38/38/38 43/43/43
f 43/43/43 29/29/29 28/28/28
f 46/46/46 45/45/45 44/44/44
f 44/44/44 47/47/47 46/46/46
f 48/48/48 44/44/44 45/45/45
f 45/45/45 49/49/49 48/48/48
f 50/50/50 48/48/48 49/49/49
f 49/49/49 51/51/51 50/50/50
f 52/52/52 50/50/50 51/51/51
f 51/51/51 53/53/53 52/52/52
f 54/54/54 52/52/52 53/53/53
f 53/53/53 55/55/55 54/54/54
f 54/54/54 55/55/55 56/56/56
f 56/56/56 57/57/57 54/54/54
f 58/58/58 57/57/57 56/56/56
f 56/56/56 59/59/59 58/58/58
f 58/58/58 59/59/59 60/60/60
f 60/60/60 61/61/61 58/58/58
f 60/60/60 62/62/62 61/61/61
f 62/62/62 60/60/60 63/63/63
f 63/63/63 64/64/64 62/62/62
f 64/64/64 63/63/63 65/65/65
f 53/53/53 51/51/51 66/66/66
f 49/49/49 45/45/45 67/67/67
f 45/45/45 68/68/68 67/67/67
f 46/46/46 68/68/68 45/45/45
f 46/46/46 69/69/69 68/68/68
f 60/60/60 59/59/59 70/70/70
f 59/59/59 56/56/56 70/70/70
f 56/56/56 71/71/71 70/70/70
f 73/73/73 72/72/72 55/55/55
f 69/69/69 74/74/74 68/68/68
f 68/68/68 74/74/74 75/75/75
f 68/68/68 75/75/75 76/76/76
f 77/77/77 66/66/66 67/67/67
f 78/78/78 71/71/71 72/72/72
f 78/78/78 79/79/79 71/71/71
f 71/71/71 79/79/79 80/80/80
f 80/80/80 70/70/70 71/71/71
f 70/70/70 80/80/80 81/81/81
f 70/70/70 81/81/81 60/60/60
f 81/81/81 80/80/80 82/82/82
f 85/85/85 84/84/84 83/83/83
f 83/83/83 86/86/86 85/85/85
f 89/89/89 88/88/88 87/87/87
f 87/87/87 88/88/88 90/90/90
f 90/90/90 88/88/88 91/91/91
f 91/91/91 88/88/88 92/92/92
f 93/93/93 88/88/88 89/89/89
f 96/96/96 95/95/95 94/94/94
f 94/94/94 95/95/95 97/97/97
f 97/97/97 95/95/95 98/98/98
f 98/98/98 95/95/95 99/99/99
f 99/99/99 95/95/95 100/100/100
f 103/103/103 102/102/102 101/101/101
f 101/101/101 102/102/102 104/104/104
f 104/104/104 102/102/102 105/105/105
f 105/105/105 102/102/102 106/106/106
f 106/106/106 102/102/102 107/107/107
f 110/110/110 109/109/109 108/108/108
f 108/108/108 109/109/109 111/111/111
f 111/111/111 109/109/109 112/112/112
f 112/112/112 109/109/109 113/113/113
f 113/113/113 109/109/109 114/114/114
f 117/117/117 116/116/116 115/115/115
f 116/116/116 118/118/118 115/115/115
f 118/118/118 119/119/119 115/115/115
f 119/119/119 120/120/120 115/115/115
f 120/120/120 121/121/121 115/115/115
f 121/121/121 122/122/122 115/115/115
f 122/122/122 123/123/123 115/115/115
f 123/123/123 124/124/124 115/115/115
f 124/124/124 125/125/125 115/115/115
f 125/125/125 126/126/126 115/115/115
f 126/126/126 127/127/127 115/115/115
f 127/127/127 128/128/128 115/115/115
f 128/128/128 129/129/129 115/115/115
f 129/129/129 130/130/130 115/115/115
f 130/130/130 131/131/131 115/115/115
f 131/131/131 132/132/132 115/115/115
f 132/132/132 133/133/133 115/115/115
f 133/133/133 134/134/134 115/115/115
f 134/134/134 135/135/135 115/115/115
f 135/135/135 117/117/117 115/115/115
f 138/138/138 137/137/137 136/136/136
f 141/141/141 140/140/140 139/139/139
f 139/139/139 142/142/142 141/141/141
f 145/145/145 144/144/144 143/143/143
f 145/145/145 146/146/146 144/144/144
f 148/148/148 147/147/147 144/144/144
f 147/147/147 148/148/148 149/149/149
f 137/137/137 151/151/151 150/150/150
f 150/150/150 152/152/152 137/137/137
f 136/136/136 154/154/154 153/153/153
f 157/157/157 156/156/156 155/155/155
f 156/156/156 158/158/158 155/155/155
f 161/161/161 160/160/160 159/159/159
f 161/161/161 162/162/162 160/160/160
f 155/155/155 164/164/164 163/163/163
f 166/166/166 158/158/158 165/165/165
f 158/158/158 166/166/166 167/167/167
f 167/167/167 168/168/168 164/164/164
f 162/162/162 164/164/164 168/168/168
f 168/168/168 169/169/169 162/162/162
f 172/172/172 171/171/171 170/170/170
f 170/170/170 173/173/173 172/172/172
f 174/174/174 172/172/172 173/173/173
f 173/173/173 175/175/175 174/174/174
f 173/173/173 170/170/170 176/176/176
f 176/176/176 177/177/177 173/173/173
f 180/180/180 179/179/179 178/178/178
f 183/183/183 182/182/182 181/181/181
f 181/181/181 185/185/185 184/184/184
