g WIRE_r_0045_chepai
v -0.161476359 0.0675043091 0.0228851307
v -0.172721744 0.0532859787 0.0184528343
v -0.157700941 0.0692811534 0.0234382618
v 0.157700971 0.0692811534 0.0234382618
v -0.174127236 0.0493009575 0.0172091667
v -0.174127236 -0.0492415242 -0.0170870963
v -0.172721744 -0.0532368086 -0.0183518976
v -0.161476359 -0.0674983189 -0.0228723139
v -0.157700941 -0.0692811161 -0.0234382618
v 0.161476359 0.0675043091 0.0228851307
v 0.172721788 0.0532859787 0.0184528343
v 0.174127236 0.0493009575 0.0172091667
v 0.174127236 -0.0492415242 -0.0170870963
v 0.172721788 -0.0532368086 -0.0183518976
v 0.157700971 -0.0692811161 -0.0234382618
v 0.161476359 -0.0674982816 -0.0228723139
vt 0.9608742 0.681936383
vt 0.993366718 0.643965364
vt 0.949965298 0.686681271
vt 0.048986461 0.686681271
vt 0.99742794 0.63332355
vt 0.99742794 0.370185405
vt 0.993366718 0.359515935
vt 0.9608742 0.321429819
vt 0.949965179 0.316668779
vt 0.0380776487 0.681936264
vt 0.00558483088 0.643965364
vt 0.00152393663 0.633323431
vt 0.00152399624 0.370185405
vt 0.00558486069 0.359515816
vt 0.048986461 0.316668779
vt 0.0380776785 0.321429938
vn -0.000259370659 0.297846735 -0.954613745
vn -7.95997221E-06 0.297704339 -0.954658151
vn -2.87182075E-07 0.297565192 -0.954701483
vn -0.000294090452 0.323654711 -0.946175218
vn -0.00200658781 0.327852339 -0.944726765
vn -0.00151133258 0.327315718 -0.944913864
vn 0.00682757236 0.306278557 -0.95191747
vn 0.00642078184 0.307215512 -0.951618314
vn -0.000279918109 0.324167788 -0.945999503
vn 0.00802243128 0.303914517 -0.952665567
vn 0.00845282152 0.302924573 -0.952977061
vn -0.00114926754 0.327133 -0.944977641
vn -0.00172441965 0.327955306 -0.944691658
vn 8.48976651E-06 0.302045673 -0.953293502
vn 3.81762192E-07 0.30219692 -0.953245521
vn 0.000344366534 0.301912576 -0.953335524
g WIRE_r_0045_chepai_0
f 3/3/3 2/2/2 1/1/1
f 4/4/4 2/2/2 3/3/3
f 4/4/4 5/5/5 2/2/2
f 4/4/4 6/6/6 5/5/5
f 4/4/4 7/7/7 6/6/6
f 4/4/4 8/8/8 7/7/7
f 4/4/4 9/9/9 8/8/8
f 10/10/10 9/9/9 4/4/4
f 11/11/11 9/9/9 10/10/10
f 12/12/12 9/9/9 11/11/11
f 13/13/13 9/9/9 12/12/12
f 9/9/9 13/13/13 14/14/14
f 9/9/9 14/14/14 15/15/15
f 15/15/15 14/14/14 16/16/16
