g WIRE_r_0045_fr
v 0.113408506 0.102985926 -0.0748236626
v 0.113408506 0.121067204 -0.03933708
v -0.0930140689 0.121067204 -0.03933708
v -0.0930140689 0.102985926 -0.0748236626
v 0.113408506 0.0748236701 -0.102985799
v -0.0930140689 0.0748236552 -0.102985799
v 0.113408506 0.0393371284 -0.121067293
v -0.0930140689 0.0393371098 -0.121067293
v 0.113408469 9.53674295E-09 -0.127297506
v -0.0930140689 9.53674295E-09 -0.127297506
v -0.0930140689 -0.0393370949 -0.121067181
v 0.113408506 -0.0393370949 -0.121067181
v 0.113408506 -0.0748236254 -0.102985799
v -0.0930140689 -0.0748236254 -0.102985799
v 0.113408506 -0.102985874 -0.0748236626
v -0.0930140689 -0.102985874 -0.0748236626
v 0.113408506 -0.121067137 -0.03933708
v -0.0930140689 -0.121067137 -0.03933708
v 0.113408506 -0.127297506 -3.81469718E-08
v -0.0930140689 -0.127297506 -3.81469718E-08
v -0.11089813 0.0693145245 -0.0954032466
v -0.110898055 0.0954032764 -0.0693144947
v -0.11089813 0.112153292 -0.0364407338
v -0.0930140689 0.127297506 -3.81469718E-08
v 0.113408506 0.127297506 -3.81469718E-08
v -0.110898055 0.117924832 -3.81469718E-08
v -0.11089813 -0.0954032093 -0.0693144947
v -0.11089813 0.0364408009 -0.112153225
v -0.11089813 9.53674295E-09 -0.117924899
v -0.123331219 0.0491315648 -0.0676238239
v -0.123331144 0.0676238164 -0.0491315648
v -0.123331144 0.0794965476 -0.0258299634
v -0.123331219 0.0258299913 -0.079496555
v -0.123331219 9.53674295E-09 -0.083587572
v -0.11089813 -0.0364407822 -0.112153225
v -0.123331219 -0.0258299913 -0.0794964805
v -0.11089813 -0.0693145096 -0.0954032466
v -0.123331144 -0.0491315387 -0.0676237494
v -0.123331219 -0.0676237643 -0.0491315648
v -0.11089813 -0.112153195 -0.0364407338
v -0.110898055 -0.117924847 -3.81469718E-08
v -0.123331144 -0.0794964805 -0.0258299634
v -0.123331144 -0.0835875571 -3.81469718E-08
v -0.123331144 0.0835875794 -3.81469718E-08
v 0.113408506 -0.121067137 0.039337121
v -0.0930140689 -0.127297506 -3.81469718E-08
v -0.0930140689 -0.121067137 0.039337121
v 0.113408506 -0.127297506 -3.81469718E-08
v 0.113408506 -0.102985859 0.074823603
v -0.0930140689 -0.102985844 0.074823603
v 0.113408506 -0.0748235956 0.102985874
v -0.0930140689 -0.0748235956 0.102985874
v 0.113408469 -0.03933708 0.121067122
v -0.0930140689 -0.03933708 0.121067122
v 0.113408469 9.53674295E-09 0.12729755
v -0.0930140689 9.53674295E-09 0.12729755
v -0.0930140689 0.0393371098 0.121067122
v 0.113408506 0.0393371098 0.121067122
v 0.113408469 0.0748235956 0.102985874
v -0.0930140689 0.0748235956 0.102985874
v -0.0930140689 0.102985866 0.074823603
v 0.113408506 0.102985866 0.074823603
v 0.113408506 0.121067151 0.039337121
v -0.0930140689 0.121067151 0.039337121
v 0.113408506 0.127297506 -3.81469718E-08
v -0.0930140689 0.127297506 -3.81469718E-08
v -0.11089813 -0.0693144873 0.0954032466
v -0.11089813 0.0693145245 0.0954032466
v -0.11089813 0.0364407897 0.112153202
v -0.11089813 -0.0364407785 0.112153202
v -0.11089813 9.53674295E-09 0.117924839
v -0.11089813 -0.112153195 0.0364407711
v -0.110898055 -0.117924847 -3.81469718E-08
v -0.123331144 -0.0835875571 -3.81469718E-08
v -0.123331144 -0.0794964805 0.0258299634
v -0.123331144 -0.0676237494 0.0491315052
v -0.110898055 -0.0954032093 0.069314532
v -0.123331144 -0.0491315387 0.0676237866
v -0.123331219 9.53674295E-09 0.0835875273
v -0.123331219 0.025829982 0.0794964582
v -0.123331144 0.049131535 0.0676237866
v -0.11089813 0.0954032242 0.069314532
v -0.11089813 0.112153232 0.0364407711
v -0.110898055 0.117924832 -3.81469718E-08
v -0.123331219 0.0676237792 0.0491315052
v -0.123331144 0.0794964656 0.0258299634
v -0.123331144 0.0835875794 -3.81469718E-08
v -0.123331144 0.0676238164 -0.0491315648
v -0.123331144 0.0794965476 -0.0258299634
v -0.132325053 9.53674295E-09 -3.81469718E-08
v -0.123331219 0.0491315648 -0.0676238239
v -0.123331219 0.0258299913 -0.079496555
v -0.123331219 9.53674295E-09 -0.083587572
v -0.123331144 0.0835875794 -3.81469718E-08
v -0.123331219 -0.0258299913 -0.0794964805
v -0.123331219 9.53674295E-09 -0.083587572
v -0.132325053 9.53674295E-09 -3.81469718E-08
v -0.123331144 -0.0491315387 -0.0676237494
v -0.123331219 -0.0676237643 -0.0491315648
v -0.123331144 -0.0794964805 -0.0258299634
v -0.123331144 -0.0835875571 -3.81469718E-08
v -0.123331144 -0.0794964805 0.0258299634
v -0.123331144 -0.0835875571 -3.81469718E-08
v -0.132325053 9.53674295E-09 -3.81469718E-08
v -0.123331144 -0.0676237494 0.0491315052
v -0.123331144 -0.0491315387 0.0676237866
v -0.123331144 -0.0258299634 0.0794964582
v -0.123331219 9.53674295E-09 0.0835875273
v -0.123331219 0.025829982 0.0794964582
v -0.123331219 9.53674295E-09 0.0835875273
v -0.132325053 9.53674295E-09 -3.81469718E-08
v -0.123331144 0.049131535 0.0676237866
v -0.123331219 0.0676237792 0.0491315052
v -0.123331144 0.0794964656 0.0258299634
v -0.123331144 0.0835875794 -3.81469718E-08
v 0.132325098 9.53674295E-09 -3.81469718E-08
v 0.113408506 0.121067204 -0.03933708
v 0.113408506 0.102985926 -0.0748236626
v 0.113408506 0.127297506 -3.81469718E-08
v 0.113408506 0.0748236701 -0.102985799
v 0.113408506 0.0393371284 -0.121067293
v 0.113408469 9.53674295E-09 -0.127297506
v 0.113408506 -0.0393370949 -0.121067181
v 0.113408506 -0.0748236254 -0.102985799
v 0.113408506 -0.102985874 -0.0748236626
v 0.113408506 -0.121067137 -0.03933708
v 0.113408506 -0.127297506 -3.81469718E-08
v 0.113408506 -0.121067137 0.039337121
v 0.113408506 -0.102985859 0.074823603
v 0.113408506 -0.0748235956 0.102985874
v 0.113408469 -0.03933708 0.121067122
v 0.113408469 9.53674295E-09 0.12729755
v 0.113408506 0.0393371098 0.121067122
v 0.113408469 0.0748235956 0.102985874
v 0.113408506 0.102985866 0.074823603
v 0.113408506 0.121067151 0.039337121
v -0.0930140689 0.121067204 -0.03933708
v -0.110898055 0.0954032764 -0.0693144947
v -0.0930140689 0.102985926 -0.0748236626
v -0.11089813 0.112153292 -0.0364407338
v -0.11089813 -0.0954032093 -0.0693144947
v -0.0930140689 -0.102985874 -0.0748236626
v -0.0930140689 -0.0748236254 -0.102985799
v -0.11089813 -0.0693145096 -0.0954032466
v -0.0930140689 -0.0393370949 -0.121067181
v -0.11089813 -0.0364407822 -0.112153225
v -0.0930140689 9.53674295E-09 -0.127297506
v -0.11089813 9.53674295E-09 -0.117924899
v -0.123331144 0.0794965476 -0.0258299634
v -0.110898055 0.117924832 -3.81469718E-08
v -0.123331219 -0.0258299913 -0.0794964805
v -0.123331144 -0.0491315387 -0.0676237494
v -0.11089813 -0.112153195 -0.0364407338
v -0.0930140689 -0.121067137 -0.03933708
v -0.0930140689 -0.127297506 -3.81469718E-08
v -0.123331144 -0.0794964805 -0.0258299634
v -0.123331144 -0.0835875571 -3.81469718E-08
v -0.11089813 -0.0693144873 0.0954032466
v -0.0930140689 -0.0748235956 0.102985874
v -0.0930140689 -0.102985844 0.074823603
v -0.110898055 -0.0954032093 0.069314532
v -0.0930140689 -0.121067137 0.039337121
v -0.11089813 -0.112153195 0.0364407711
v -0.0930140689 -0.127297506 -3.81469718E-08
v -0.110898055 -0.117924847 -3.81469718E-08
v -0.11089813 0.0364407897 0.112153202
v -0.0930140689 0.0393371098 0.121067122
v -0.0930140689 9.53674295E-09 0.12729755
v -0.11089813 9.53674295E-09 0.117924839
v -0.123331144 -0.0491315387 0.0676237866
v -0.11089813 -0.0364407785 0.112153202
v -0.123331144 -0.0258299634 0.0794964582
v -0.123331219 9.53674295E-09 0.0835875273
v -0.123331219 0.025829982 0.0794964582
v -0.123331144 0.049131535 0.0676237866
v -0.0930140689 0.121067151 0.039337121
v -0.0930140689 0.102985866 0.074823603
v -0.11089813 0.0954032242 0.069314532
v -0.11089813 0.112153232 0.0364407711
v -0.11089813 -0.0364407785 0.112153202
v -0.123331144 -0.0258299634 0.0794964582
v -0.11089813 9.53674295E-09 0.117924839
vt 0.899930716 0.536651194
vt 0.899930596 0.521923602
vt 0.828357458 0.522345424
vt 0.828357458 0.536812603
vt 0.899930537 0.55050987
vt 0.828357458 0.550311208
vt 0.899930596 0.565209448
vt 0.828357458 0.565002382
vt 0.899930656 0.581146836
vt 0.828357458 0.580935836
vt 0.828357458 0.598135412
vt 0.899930537 0.597880781
vt 0.899930537 0.613399863
vt 0.828357458 0.613807321
vt 0.899930716 0.627358377
vt 0.828357458 0.627034605
vt 0.899930537 0.64247191
vt 0.828357458 0.642204762
vt 0.899930596 0.657958388
vt 0.828357458 0.657958388
vt 0.822144747 0.550311208
vt 0.822144747 0.536812544
vt 0.822144628 0.522097588
vt 0.828357458 0.506359816
vt 0.899930537 0.506359816
vt 0.822144687 0.506359816
vt 0.822144687 0.627034605
vt 0.822144806 0.565023124
vt 0.822144747 0.580935836
vt 0.798146069 0.550311208
vt 0.798146069 0.536812603
vt 0.798146069 0.521973491
vt 0.798146069 0.565033376
vt 0.798146069 0.580935836
vt 0.822144687 0.598135412
vt 0.798146069 0.598135412
vt 0.822144806 0.613807321
vt 0.798146069 0.613807321
vt 0.798146069 0.627034605
vt 0.822144806 0.642204762
vt 0.822144687 0.657958388
vt 0.798146069 0.642204762
vt 0.798146069 0.657958388
vt 0.798146069 0.506359816
vt 0.899930537 0.521909595
vt 0.828357458 0.506359816
vt 0.828357458 0.522176743
vt 0.899930656 0.506359816
vt 0.899930537 0.537023127
vt 0.828357458 0.5373469
vt 0.899930537 0.550981641
vt 0.828357458 0.550574183
vt 0.899930596 0.566500783
vt 0.828357458 0.566246092
vt 0.899930656 0.583234668
vt 0.828357458 0.583445668
vt 0.828357458 0.599378943
vt 0.899930596 0.599171937
vt 0.899930656 0.613871515
vt 0.828357458 0.614070296
vt 0.828357458 0.627568901
vt 0.899930537 0.62773025
vt 0.899930537 0.642457843
vt 0.828357458 0.64203608
vt 0.899930716 0.657958388
vt 0.828357458 0.657958388
vt 0.822144687 0.550574183
vt 0.822144568 0.614070356
vt 0.822144747 0.599358439
vt 0.822144687 0.566246092
vt 0.822144687 0.583445668
vt 0.822144806 0.522176683
vt 0.822144687 0.506359816
vt 0.798146069 0.506359816
vt 0.798146069 0.522176743
vt 0.798146069 0.5373469
vt 0.822144747 0.53734684
vt 0.798146069 0.550574183
vt 0.798146069 0.583445668
vt 0.798146069 0.599348128
vt 0.798146069 0.614070296
vt 0.822144806 0.627568901
vt 0.822144806 0.642283797
vt 0.822144687 0.657958388
vt 0.798146069 0.627568901
vt 0.798146069 0.642407835
vt 0.798146069 0.657958388
vt 0.535336375 0.712362051
vt 0.524077594 0.7180987
vt 0.511597097 0.679687858
vt 0.544271588 0.703427017
vt 0.550008059 0.692168176
vt 0.551984727 0.679687858
vt 0.511597097 0.720075309
vt 0.549499452 0.664835453
vt 0.551476359 0.67731595
vt 0.51108861 0.67731595
vt 0.543763041 0.653576732
vt 0.534827828 0.644641757
vt 0.523569047 0.638905168
vt 0.51108861 0.636928439
vt 0.471753359 0.692483127
vt 0.46977675 0.680002749
vt 0.510164142 0.680002749
vt 0.477490067 0.703741968
vt 0.486424983 0.712677002
vt 0.497683883 0.718413591
vt 0.510164261 0.720390201
vt 0.497669727 0.638837457
vt 0.510150313 0.636860728
vt 0.510150313 0.67724824
vt 0.486410946 0.644573927
vt 0.477476001 0.65350914
vt 0.471739292 0.664767921
vt 0.469762713 0.677248299
vt 0.905587673 0.539208174
vt 0.910067558 0.537752569
vt 0.909398377 0.536439478
vt 0.910298109 0.539208174
vt 0.908356309 0.535397291
vt 0.907043219 0.534728289
vt 0.905587673 0.534497738
vt 0.904132009 0.534728289
vt 0.902818918 0.535397291
vt 0.901776791 0.536439478
vt 0.901107669 0.537752569
vt 0.900877118 0.539208174
vt 0.901107669 0.540663779
vt 0.901776791 0.541976869
vt 0.902818918 0.543018997
vt 0.904132009 0.543687999
vt 0.905587673 0.54391861
vt 0.907043219 0.543687999
vt 0.908356309 0.543018997
vt 0.909398377 0.541976869
vt 0.910067499 0.540663779
vt 0.828357458 0.522345424
vt 0.822144747 0.536812544
vt 0.828357458 0.536812603
vt 0.822144628 0.522097588
vt 0.822144687 0.627034605
vt 0.828357458 0.627034605
vt 0.828357458 0.613807321
vt 0.822144806 0.613807321
vt 0.828357458 0.598135412
vt 0.822144687 0.598135412
vt 0.828357458 0.580935836
vt 0.822144747 0.580935836
vt 0.798146069 0.521973491
vt 0.822144687 0.506359816
vt 0.798146069 0.598135412
vt 0.798146069 0.613807321
vt 0.822144806 0.642204762
vt 0.828357458 0.642204762
vt 0.828357458 0.657958388
vt 0.798146069 0.642204762
vt 0.798146069 0.657958388
vt 0.822144687 0.550574183
vt 0.828357458 0.550574183
vt 0.828357458 0.5373469
vt 0.822144747 0.53734684
vt 0.828357458 0.522176743
vt 0.822144806 0.522176683
vt 0.828357458 0.506359816
vt 0.822144687 0.506359816
vt 0.822144747 0.599358439
vt 0.828357458 0.599378943
vt 0.828357458 0.583445668
vt 0.822144687 0.583445668
vt 0.798146069 0.550574183
vt 0.822144687 0.566246092
vt 0.798146069 0.566246092
vt 0.798146069 0.583445668
vt 0.798146069 0.599348128
vt 0.798146069 0.614070296
vt 0.828357458 0.64203608
vt 0.828357458 0.627568901
vt 0.822144806 0.627568901
vt 0.822144806 0.642283797
vt 0.822144687 0.566246092
vt 0.798146069 0.566246092
vt 0.822144687 0.583445668
vn 0.257808626 0.781668842 -0.567915976
vn 0.257808685 0.918907285 -0.298569977
vn -0.0386064611 0.950347841 -0.308785647
vn -0.0386064984 0.808413625 -0.587347388
vn 0.257809222 0.567916155 -0.781668544
vn -0.038606599 0.587347686 -0.808413446
vn 0.257808357 0.29857111 -0.918907046
vn -0.0386065878 0.308786988 -0.950347364
vn 0.257808954 -1.33290257E-06 -0.966195941
vn -0.0386065841 -1.37934626E-06 -0.999254405
vn -0.0386064313 -0.308787078 -0.950347364
vn 0.257808656 -0.298571169 -0.918906987
vn 0.257808894 -0.56791544 -0.78166914
vn -0.0386064202 -0.587346733 -0.808414042
vn 0.257808536 -0.781669021 -0.567915738
vn -0.0386065133 -0.808413804 -0.58734709
vn 0.257808864 -0.918907046 -0.298570633
vn -0.0386065356 -0.950347602 -0.308786303
vn 0.257808626 -0.96619606 0
vn -0.0386064686 -0.999254405 0
vn -0.784412742 0.364568084 -0.50178355
vn -0.784412682 0.501784325 -0.364567161
vn -0.784413695 0.589881539 -0.191663593
vn -0.0386064313 0.999254405 7.59527438E-07
vn 0.257808805 0.966195941 7.17834098E-07
vn -0.78441304 0.620238781 6.06322999E-07
vn -0.78441304 -0.501783788 -0.364567101
vn -0.78441292 0.191664293 -0.589882493
vn -0.784412742 -2.33200922E-07 -0.620239139
vn -0.970921338 0.140715852 -0.193676859
vn -0.970921218 0.193678871 -0.140714407
vn -0.970921457 0.227681413 -0.073977977
vn -0.970921338 0.0739776194 -0.22768192
vn -0.970921338 0 -0.239398763
vn -0.78441292 -0.191664755 -0.589882255
vn -0.970921457 -0.0739787668 -0.227681056
vn -0.784412801 -0.364567101 -0.501784265
vn -0.970921338 -0.140715092 -0.193677649
vn -0.970921457 -0.193677381 -0.14071469
vn -0.784413278 -0.589882076 -0.191663533
vn -0.784412801 -0.620239079 0
vn -0.970921457 -0.227681801 -0.0739769712
vn -0.970921338 -0.239398941 0
vn -0.970921338 0.239398852 3.33710773E-07
vn 0.257808596 -0.918907046 0.298570871
vn -0.0386064686 -0.999254405 0
vn -0.0386064313 -0.950347483 0.308786482
vn 0.257808626 -0.96619606 0
vn 0.257808894 -0.781668842 0.567915797
vn -0.0386063866 -0.808413804 0.58734709
vn 0.257808894 -0.56791544 0.78166914
vn -0.0386063792 -0.587346852 0.808414042
vn 0.257808864 -0.298570991 0.918906987
vn -0.0386064649 -0.30878672 0.950347483
vn 0.257808626 -1.01897342E-07 0.96619606
vn -0.038606517 0 0.999254405
vn -0.0386063643 0.308786809 0.950347483
vn 0.257808983 0.298571229 0.918906868
vn 0.257808715 0.567915618 0.78166914
vn -0.0386063308 0.587346911 0.808413982
vn -0.0386064202 0.808413804 0.587347031
vn 0.257809043 0.781668663 0.567915976
vn 0.257808536 0.918907166 0.298570663
vn -0.0386064388 0.950347602 0.308786213
vn 0.257808805 0.966195941 7.17834098E-07
vn -0.0386064313 0.999254405 7.59527438E-07
vn -0.784413338 -0.364566952 0.50178349
vn -0.784412622 0.36456731 0.501784384
vn -0.784412682 0.1916641 0.589882731
vn -0.784413218 -0.191663757 0.589882255
vn -0.78441298 -3.86447397E-07 0.620238841
vn -0.784413576 -0.589881718 0.191663936
vn -0.784412801 -0.620239079 0
vn -0.970921338 -0.239398941 0
vn -0.970921218 -0.227682039 0.0739781708
vn -0.970921218 -0.193678096 0.140714794
vn -0.78441304 -0.501783669 0.36456725
vn -0.970921576 -0.140714452 0.193677038
vn -0.970921457 -1.03037507E-06 0.239398211
vn -0.970921576 0.0739781484 0.227681056
vn -0.970921338 0.140714705 0.193677649
vn -0.78441292 0.501783967 0.364567339
vn -0.78441292 0.589882851 0.191663191
vn -0.78441304 0.620238781 6.06322999E-07
vn -0.970921457 0.193677381 0.140714437
vn -0.970921338 0.227682039 0.0739769116
vn -0.970921338 0.239398852 3.33710773E-07
vn -0.970921218 0.193678871 -0.140714407
vn -0.970921457 0.227681413 -0.073977977
vn -1 -1.21531102E-07 1.44235315E-07
vn -0.970921338 0.140715852 -0.193676859
vn -0.970921338 0.0739776194 -0.22768192
vn -0.970921338 0 -0.239398763
vn -0.970921338 0.239398852 3.33710773E-07
vn -0.970921457 -0.0739787668 -0.227681056
vn -0.970921338 0 -0.239398763
vn -1 -1.21531102E-07 1.44235315E-07
vn -0.970921338 -0.140715092 -0.193677649
vn -0.970921457 -0.193677381 -0.14071469
vn -0.970921457 -0.227681801 -0.0739769712
vn -0.970921338 -0.239398941 0
vn -0.970921218 -0.227682039 0.0739781708
vn -0.970921338 -0.239398941 0
vn -1 -1.21531102E-07 1.44235315E-07
vn -0.970921218 -0.193678096 0.140714794
vn -0.970921576 -0.140714452 0.193677038
vn -0.970921576 -0.073977977 0.227680907
vn -0.970921457 -1.03037507E-06 0.239398211
vn -0.970921576 0.0739781484 0.227681056
vn -0.970921457 -1.03037507E-06 0.239398211
vn -1 -1.21531102E-07 1.44235315E-07
vn -0.970921338 0.140714705 0.193677649
vn -0.970921457 0.193677381 0.140714437
vn -0.970921338 0.227682039 0.0739769116
vn -0.970921338 0.239398852 3.33710773E-07
vn 1 0 0
vn 0.257808685 0.918907285 -0.298569977
vn 0.257808626 0.781668842 -0.567915976
vn 0.257808805 0.966195941 7.17834098E-07
vn 0.257809222 0.567916155 -0.781668544
vn 0.257808357 0.29857111 -0.918907046
vn 0.257808954 -1.33290257E-06 -0.966195941
vn 0.257808656 -0.298571169 -0.918906987
vn 0.257808894 -0.56791544 -0.78166914
vn 0.257808536 -0.781669021 -0.567915738
vn 0.257808864 -0.918907046 -0.298570633
vn 0.257808626 -0.96619606 0
vn 0.257808596 -0.918907046 0.298570871
vn 0.257808894 -0.781668842 0.567915797
vn 0.257808894 -0.56791544 0.78166914
vn 0.257808864 -0.298570991 0.918906987
vn 0.257808626 -1.01897342E-07 0.96619606
vn 0.257808983 0.298571229 0.918906868
vn 0.257808715 0.567915618 0.78166914
vn 0.257809043 0.781668663 0.567915976
vn 0.257808536 0.918907166 0.298570663
vn -0.0386064611 0.950347841 -0.308785647
vn -0.784412682 0.501784325 -0.364567161
vn -0.0386064984 0.808413625 -0.587347388
vn -0.784413695 0.589881539 -0.191663593
vn -0.78441304 -0.501783788 -0.364567101
vn -0.0386065133 -0.808413804 -0.58734709
vn -0.0386064202 -0.587346733 -0.808414042
vn -0.784412801 -0.364567101 -0.501784265
vn -0.0386064313 -0.308787078 -0.950347364
vn -0.78441292 -0.191664755 -0.589882255
vn -0.0386065841 -1.37934626E-06 -0.999254405
vn -0.784412742 -2.33200922E-07 -0.620239139
vn -0.970921457 0.227681413 -0.073977977
vn -0.78441304 0.620238781 6.06322999E-07
vn -0.970921457 -0.0739787668 -0.227681056
vn -0.970921338 -0.140715092 -0.193677649
vn -0.784413278 -0.589882076 -0.191663533
vn -0.0386065356 -0.950347602 -0.308786303
vn -0.0386064686 -0.999254405 0
vn -0.970921457 -0.227681801 -0.0739769712
vn -0.970921338 -0.239398941 0
vn -0.784413338 -0.364566952 0.50178349
vn -0.0386063792 -0.587346852 0.808414042
vn -0.0386063866 -0.808413804 0.58734709
vn -0.78441304 -0.501783669 0.36456725
vn -0.0386064313 -0.950347483 0.308786482
vn -0.784413576 -0.589881718 0.191663936
vn -0.0386064686 -0.999254405 0
vn -0.784412801 -0.620239079 0
vn -0.784412682 0.1916641 0.589882731
vn -0.0386063643 0.308786809 0.950347483
vn -0.038606517 0 0.999254405
vn -0.78441298 -3.86447397E-07 0.620238841
vn -0.970921576 -0.140714452 0.193677038
vn -0.784413218 -0.191663757 0.589882255
vn -0.970921576 -0.073977977 0.227680907
vn -0.970921457 -1.03037507E-06 0.239398211
vn -0.970921576 0.0739781484 0.227681056
vn -0.970921338 0.140714705 0.193677649
vn -0.0386064388 0.950347602 0.308786213
vn -0.0386064202 0.808413804 0.587347031
vn -0.78441292 0.501783967 0.364567339
vn -0.78441292 0.589882851 0.191663191
vn -0.784413218 -0.191663757 0.589882255
vn -0.970921576 -0.073977977 0.227680907
vn -0.78441298 -3.86447397E-07 0.620238841
g WIRE_r_0045_fr_0
f 3/3/3 2/2/2 1/1/1
f 1/1/1 4/4/4 3/3/3
f 4/4/4 1/1/1 5/5/5
f 6/6/6 4/4/4 5/5/5
f 6/6/6 5/5/5 7/7/7
f 8/8/8 6/6/6 7/7/7
f 8/8/8 7/7/7 9/9/9
f 10/10/10 8/8/8 9/9/9
f 11/11/11 10/10/10 9/9/9
f 9/9/9 12/12/12 11/11/11
f 11/11/11 12/12/12 13/13/13
f 14/14/14 11/11/11 13/13/13
f 14/14/14 13/13/13 15/15/15
f 16/16/16 14/14/14 15/15/15
f 16/16/16 15/15/15 17/17/17
f 18/18/18 16/16/16 17/17/17
f 18/18/18 17/17/17 19/19/19
f 20/20/20 18/18/18 19/19/19
f 21/21/21 6/6/6 8/8/8
f 6/6/6 21/21/21 22/22/22
f 22/22/22 4/4/4 6/6/6
f 24/24/24 3/3/3 23/23/23
f 2/2/2 3/3/3 24/24/24
f 25/25/25 2/2/2 24/24/24
f 23/23/23 26/26/26 24/24/24
f 27/27/27 16/16/16 18/18/18
f 10/10/10 29/29/29 28/28/28
f 28/28/28 8/8/8 10/10/10
f 8/8/8 28/28/28 21/21/21
f 30/30/30 21/21/21 28/28/28
f 30/30/30 31/31/31 21/21/21
f 21/21/21 31/31/31 22/22/22
f 31/31/31 32/32/32 22/22/22
f 28/28/28 33/33/33 30/30/30
f 33/33/33 28/28/28 29/29/29
f 29/29/29 34/34/34 33/33/33
f 34/34/34 29/29/29 35/35/35
f 35/35/35 36/36/36 34/34/34
f 39/39/39 38/38/38 37/37/37
f 37/37/37 27/27/27 39/39/39
f 40/40/40 39/39/39 27/27/27
f 20/20/20 41/41/41 40/40/40
f 42/42/42 39/39/39 40/40/40
f 40/40/40 41/41/41 43/43/43
f 32/32/32 44/44/44 26/26/26
f 47/47/47 46/46/46 45/45/45
f 46/46/46 48/48/48 45/45/45
f 47/47/47 45/45/45 49/49/49
f 50/50/50 47/47/47 49/49/49
f 50/50/50 49/49/49 51/51/51
f 52/52/52 50/50/50 51/51/51
f 52/52/52 51/51/51 53/53/53
f 54/54/54 52/52/52 53/53/53
f 54/54/54 53/53/53 55/55/55
f 56/56/56 54/54/54 55/55/55
f 57/57/57 56/56/56 55/55/55
f 55/55/55 58/58/58 57/57/57
f 57/57/57 58/58/58 59/59/59
f 60/60/60 57/57/57 59/59/59
f 61/61/61 60/60/60 59/59/59
f 59/59/59 62/62/62 61/61/61
f 62/62/62 63/63/63 61/61/61
f 63/63/63 64/64/64 61/61/61
f 63/63/63 65/65/65 64/64/64
f 65/65/65 66/66/66 64/64/64
f 67/67/67 52/52/52 54/54/54
f 68/68/68 60/60/60 61/61/61
f 57/57/57 60/60/60 68/68/68
f 68/68/68 69/69/69 57/57/57
f 56/56/56 71/71/71 70/70/70
f 54/54/54 70/70/70 67/67/67
f 70/70/70 54/54/54 56/56/56
f 74/74/74 73/73/73 72/72/72
f 72/72/72 75/75/75 74/74/74
f 72/72/72 77/77/77 76/76/76
f 76/76/76 75/75/75 72/72/72
f 78/78/78 76/76/76 77/77/77
f 77/77/77 67/67/67 78/78/78
f 69/69/69 79/79/79 71/71/71
f 80/80/80 79/79/79 69/69/69
f 69/69/69 68/68/68 81/81/81
f 81/81/81 68/68/68 82/82/82
f 61/61/61 82/82/82 68/68/68
f 83/83/83 64/64/64 66/66/66
f 66/66/66 84/84/84 83/83/83
f 82/82/82 85/85/85 81/81/81
f 85/85/85 82/82/82 83/83/83
f 83/83/83 86/86/86 85/85/85
f 87/87/87 86/86/86 83/83/83
f 83/83/83 84/84/84 87/87/87
f 90/90/90 89/89/89 88/88/88
f 90/90/90 88/88/88 91/91/91
f 90/90/90 91/91/91 92/92/92
f 90/90/90 92/92/92 93/93/93
f 90/90/90 94/94/94 89/89/89
f 97/97/97 96/96/96 95/95/95
f 97/97/97 95/95/95 98/98/98
f 97/97/97 98/98/98 99/99/99
f 97/97/97 99/99/99 100/100/100
f 97/97/97 100/100/100 101/101/101
f 104/104/104 103/103/103 102/102/102
f 104/104/104 102/102/102 105/105/105
f 104/104/104 105/105/105 106/106/106
f 104/104/104 106/106/106 107/107/107
f 104/104/104 107/107/107 108/108/108
f 111/111/111 110/110/110 109/109/109
f 111/111/111 109/109/109 112/112/112
f 111/111/111 112/112/112 113/113/113
f 111/111/111 113/113/113 114/114/114
f 111/111/111 114/114/114 115/115/115
f 118/118/118 117/117/117 116/116/116
f 117/117/117 119/119/119 116/116/116
f 120/120/120 118/118/118 116/116/116
f 121/121/121 120/120/120 116/116/116
f 122/122/122 121/121/121 116/116/116
f 123/123/123 122/122/122 116/116/116
f 124/124/124 123/123/123 116/116/116
f 125/125/125 124/124/124 116/116/116
f 126/126/126 125/125/125 116/116/116
f 127/127/127 126/126/126 116/116/116
f 128/128/128 127/127/127 116/116/116
f 129/129/129 128/128/128 116/116/116
f 130/130/130 129/129/129 116/116/116
f 131/131/131 130/130/130 116/116/116
f 132/132/132 131/131/131 116/116/116
f 133/133/133 132/132/132 116/116/116
f 134/134/134 133/133/133 116/116/116
f 135/135/135 134/134/134 116/116/116
f 136/136/136 135/135/135 116/116/116
f 119/119/119 136/136/136 116/116/116
f 139/139/139 138/138/138 137/137/137
f 137/137/137 138/138/138 140/140/140
f 143/143/143 142/142/142 141/141/141
f 141/141/141 144/144/144 143/143/143
f 145/145/145 143/143/143 144/144/144
f 144/144/144 146/146/146 145/145/145
f 147/147/147 145/145/145 146/146/146
f 146/146/146 148/148/148 147/147/147
f 138/138/138 149/149/149 140/140/140
f 150/150/150 140/140/140 149/149/149
f 146/146/146 144/144/144 151/151/151
f 144/144/144 152/152/152 151/151/151
f 154/154/154 153/153/153 141/141/141
f 153/153/153 154/154/154 155/155/155
f 157/157/157 156/156/156 153/153/153
f 160/160/160 159/159/159 158/158/158
f 158/158/158 161/161/161 160/160/160
f 162/162/162 160/160/160 161/161/161
f 161/161/161 163/163/163 162/162/162
f 164/164/164 162/162/162 163/163/163
f 163/163/163 165/165/165 164/164/164
f 168/168/168 167/167/167 166/166/166
f 166/166/166 169/169/169 168/168/168
f 158/158/158 171/171/171 170/170/170
f 171/171/171 172/172/172 170/170/170
f 173/173/173 172/172/172 169/169/169
f 175/175/175 174/174/174 166/166/166
f 178/178/178 177/177/177 176/176/176
f 176/176/176 179/179/179 178/178/178
f 182/182/182 181/181/181 180/180/180
