g eyelid_r
v 0.102299757 -0.0122939199 0.0413801745
v 0.0707030669 -0.0122939087 0.0407694057
v 0.0707030669 -0.0122939134 0.0529960431
v 0.102299757 -0.0122939246 0.0529960617
v 0.133896455 -0.0122939302 0.0273329541
v 0.133896455 -0.0122939348 0.0529960617
v 0.165493146 -0.0122939348 0.00198972691
v 0.165493146 -0.0122939469 0.0529960617
v 0.172477409 -0.0122939488 0.0529960617
v 0.172477409 -0.0122939367 0.00198972691
v 0.039106369 -0.0122938938 0.0320153609
v 0.039106369 -0.0122939013 0.0529960431
v 0.00750967022 -0.0122938752 0.00198970782
v 0.00750967022 -0.0122938892 0.0529960431
v -0.00326620089 -0.0122938706 0.00198968872
v -0.00326620089 -0.0122938845 0.0529960431
v 0.165493146 -0.0122939199 -0.0500470549
v 0.172477409 -0.0122939227 -0.0500470549
v 0.133896455 -0.0122938771 -0.0500470735
v 0.133896455 -0.0122939153 0.00198972691
v 0.102299765 -0.012293865 -0.0500470735
v 0.102299765 -0.0122938938 0.00198970782
v 0.0707030743 -0.012293865 -0.0500470735
v 0.0707030669 -0.0122938873 0.00198970782
v -0.00326620089 -0.0122938585 -0.0500470735
v 0.00750967022 -0.0122938603 -0.0500470735
v 0.039106369 -0.0122938817 0.00198970782
v 0.039106369 -0.0122938678 -0.0500470735
vt 0.672702432 0.52082026
vt 0.633517921 0.52013278
vt 0.633517921 0.533890128
vt 0.672702432 0.533890128
vt 0.711887479 0.505014718
vt 0.711887479 0.533890128
vt 0.751072168 0.476498991
vt 0.751072168 0.533890128
vt 0.759733617 0.533890128
vt 0.759733617 0.476498991
vt 0.594332814 0.510283113
vt 0.594332814 0.533890128
vt 0.555148184 0.476498991
vt 0.555148184 0.533890128
vt 0.541784286 0.476498991
vt 0.541784286 0.533890128
vt 0.751072168 0.417948425
vt 0.759733617 0.417948425
vt 0.711887479 0.417948425
vt 0.711887479 0.476498991
vt 0.672702432 0.417948425
vt 0.672702432 0.476498991
vt 0.633517921 0.417948425
vt 0.633517921 0.476498991
vt 0.541784286 0.417948425
vt 0.555148184 0.417948425
vt 0.594332814 0.476498991
vt 0.594332814 0.417948425
vn -3.96621118E-07 -1 -4.47681771E-07
vn -3.22696422E-07 -1 -4.58742591E-07
vn -3.69350516E-07 -1 -3.79486892E-07
vn -3.66055758E-07 -1 -3.27904843E-07
vn -4.76748454E-07 -1 -4.0336397E-07
vn -3.5504533E-07 -1 -2.36749727E-07
vn -5.30907073E-07 -1 -3.44881812E-07
vn -3.46381086E-07 -1 -2.25696652E-07
vn -3.41364938E-07 -1 -2.33714673E-07
vn -3.41364938E-07 -1 -2.54309299E-07
vn -3.02971586E-07 -1 -3.78259273E-07
vn -3.57062078E-07 -1 -3.28530973E-07
vn -3.22586573E-07 -1 -2.88325538E-07
vn -3.95672771E-07 -1 -2.89267291E-07
vn -3.87191164E-07 -1 -2.66226436E-07
vn -4.42504302E-07 -1 -2.80457556E-07
vn -6.61152001E-07 -1 -3.89447166E-07
vn -3.41364938E-07 -1 -2.74903925E-07
vn -7.54568077E-07 -1 -5.72716431E-07
vn -6.85610132E-07 -1 -5.84002521E-07
vn -3.20691299E-07 -1 -5.61262084E-07
vn -3.91740855E-07 -1 -5.89661227E-07
vn -0 -1 -4.12355917E-07
vn -1.70367571E-07 -1 -4.79956782E-07
vn -3.31878169E-07 -1 -2.51995317E-07
vn -2.79124293E-07 -1 -2.63449607E-07
vn -1.81273577E-07 -1 -3.75168725E-07
vn -1.32049394E-07 -1 -3.09266909E-07
g eyelid_r_0
f 3/3/3 2/2/2 1/1/1
f 4/4/4 3/3/3 1/1/1
f 4/4/4 1/1/1 5/5/5
f 6/6/6 4/4/4 5/5/5
f 6/6/6 5/5/5 7/7/7
f 8/8/8 6/6/6 7/7/7
f 9/9/9 8/8/8 7/7/7
f 10/10/10 9/9/9 7/7/7
f 11/11/11 2/2/2 3/3/3
f 12/12/12 11/11/11 3/3/3
f 13/13/13 11/11/11 12/12/12
f 14/14/14 13/13/13 12/12/12
f 15/15/15 13/13/13 14/14/14
f 16/16/16 15/15/15 14/14/14
f 10/10/10 7/7/7 17/17/17
f 18/18/18 10/10/10 17/17/17
f 17/17/17 7/7/7 19/19/19
f 7/7/7 20/20/20 19/19/19
f 20/20/20 7/7/7 5/5/5
f 19/19/19 20/20/20 21/21/21
f 20/20/20 22/22/22 21/21/21
f 21/21/21 22/22/22 23/23/23
f 22/22/22 24/24/24 23/23/23
f 15/15/15 25/25/25 13/13/13
f 25/25/25 26/26/26 13/13/13
f 13/13/13 26/26/26 27/27/27
f 26/26/26 28/28/28 27/27/27
f 28/28/28 23/23/23 24/24/24
f 27/27/27 28/28/28 24/24/24
f 27/27/27 11/11/11 13/13/13
f 27/27/27 24/24/24 11/11/11
f 24/24/24 2/2/2 11/11/11
f 24/24/24 22/22/22 2/2/2
f 22/22/22 1/1/1 2/2/2
f 22/22/22 20/20/20 1/1/1
f 20/20/20 5/5/5 1/1/1
